<svg width="30" height="28" viewBox="0 0 30 28" fill="none" xmlns="http://www.w3.org/2000/svg">
<path fill-rule="evenodd" clip-rule="evenodd" d="M8.94141 6.29348C8.94141 2.94915 11.6537 0.236816 14.9984 0.236816C18.3431 0.236816 21.0551 2.94915 21.0547 6.29348C21.0547 8.28155 20.3749 9.26456 16.7468 14.5104C16.2731 15.1954 15.7491 15.9531 15.1697 16.7951C15.0751 16.9331 14.9217 16.9331 14.8267 16.7951C14.2448 15.9491 13.7187 15.1883 13.2432 14.5008C9.62122 9.26337 8.94141 8.28034 8.94141 6.29348ZM12.1654 6.29382C12.1654 7.85882 13.4341 9.12715 14.9984 9.12715C16.5627 9.12715 17.8321 7.85882 17.8321 6.29382C17.8321 4.72948 16.5624 3.46082 14.9984 3.46082C13.4341 3.46082 12.1654 4.72948 12.1654 6.29382Z" fill="#32A4FD"/>
<path d="M7.90527 24.5279L14.5729 27.5762V18.0649L10.5286 16.6582L7.90527 24.5279Z" fill="#32A4FD"/>
<path d="M15.4248 18.0649V27.5762L22.0921 24.5279L19.4691 16.6582L15.4248 18.0649Z" fill="#32A4FD"/>
<path d="M29.9764 27.618L24.8727 18.2623C24.8631 18.2433 24.8461 18.2297 24.8257 18.2227L20.3721 16.6733L23.0211 24.6217L29.8754 27.7547C29.8867 27.7603 29.8987 27.7623 29.9104 27.7623C29.9111 27.7623 29.9117 27.7623 29.9124 27.7623C29.9671 27.7667 29.9994 27.725 29.9994 27.677C29.9997 27.6543 29.9907 27.6333 29.9764 27.618Z" fill="#32A4FD"/>
<path d="M5.17049 18.2228C5.15049 18.2298 5.13382 18.2438 5.12382 18.2625L0.0104907 27.6365C-0.00717594 27.6685 -0.00217594 27.7085 0.0228241 27.7352C0.0478241 27.7622 0.0871574 27.7698 0.120824 27.7552L6.97516 24.6218L9.62449 16.6738L5.17049 18.2228Z" fill="#32A4FD"/>
</svg>
