<?xml version="1.0" standalone="no"?>
<!DOCTYPE svg PUBLIC "-//W3C//DTD SVG 20010904//EN"
 "http://www.w3.org/TR/2001/REC-SVG-20010904/DTD/svg10.dtd">
<svg version="1.0" xmlns="http://www.w3.org/2000/svg"
 width="140.000000pt" height="55.000000pt" viewBox="0 0 140.000000 55.000000"
 preserveAspectRatio="xMidYMid meet">
<metadata>
Created by potrace 1.16, written by Peter Selinger 2001-2019
</metadata>
<g transform="translate(0.000000,55.000000) scale(0.100000,-0.100000)"
fill="#000000" stroke="none">
<path d="M629 521 c-47 -15 -73 -33 -351 -240 l-278 -205 0 -38 0 -39 58 43
c31 23 163 121 292 217 129 96 253 182 275 192 56 26 131 24 186 -4 24 -12
145 -103 269 -202 280 -224 306 -245 314 -245 3 0 6 15 6 34 0 32 -12 43 -264
244 -146 116 -280 219 -298 228 -37 19 -167 29 -209 15z"/>
</g>
</svg>
