<svg width="20" height="15" viewBox="0 0 20 15" fill="none" xmlns="http://www.w3.org/2000/svg">
<path d="M9.95346 0.00255891C9.8477 0.0141811 9.75012 0.0649984 9.67997 0.144995C9.60982 0.224991 9.57218 0.328364 9.57447 0.434738V2.64217H3.90961C3.8941 2.64132 3.87857 2.64132 3.86306 2.64217C3.79575 2.64918 3.73109 2.67214 3.67442 2.70914C3.61776 2.74614 3.57074 2.79612 3.53727 2.85494L0.0532432 8.94533C0.0172292 9.01039 -0.00111018 9.08375 5.19918e-05 9.1581V14.4772C6.32699e-05 14.5901 0.0448994 14.6983 0.124699 14.7781C0.204499 14.8579 0.312728 14.9027 0.425582 14.9027H19.5744C19.6873 14.9027 19.7955 14.8579 19.8753 14.7781C19.9551 14.6983 19.9999 14.5901 19.9999 14.4772V9.1581C20.0011 9.08375 19.9828 9.01039 19.9468 8.94533L16.4627 2.85494C16.4251 2.78969 16.3707 2.73561 16.3053 2.69823C16.2399 2.66085 16.1657 2.6415 16.0904 2.64217H10.4255V0.434738C10.4268 0.374161 10.4152 0.314004 10.3914 0.25829C10.3676 0.202576 10.3321 0.152591 10.2874 0.111677C10.2427 0.0707623 10.1898 0.0398628 10.1322 0.0210449C10.0746 0.00222696 10.0137 -0.00407555 9.95346 0.00255891ZM4.14897 3.49323H9.57447V7.34295L7.94549 5.86024C7.90365 5.8214 7.85442 5.79138 7.80073 5.77196C7.74704 5.75254 7.69 5.74413 7.63299 5.74721C7.54844 5.75152 7.4671 5.78094 7.39936 5.83172C7.33162 5.8825 7.28057 5.95233 7.25273 6.03228C7.22489 6.11223 7.22153 6.19867 7.24307 6.28054C7.26462 6.36241 7.3101 6.436 7.37368 6.49189L9.7141 8.61954C9.79239 8.69054 9.8943 8.72988 10 8.72988C10.1057 8.72988 10.2076 8.69054 10.2859 8.61954L12.6263 6.49189C12.7101 6.41606 12.7603 6.31007 12.7659 6.19722C12.7715 6.08438 12.7321 5.97392 12.6562 5.89016C12.5804 5.8064 12.4744 5.75619 12.3616 5.75058C12.2487 5.74497 12.1383 5.78442 12.0545 5.86024L10.4255 7.34295V3.49323H15.851L18.843 8.73257H13.4042C13.2914 8.73258 13.1832 8.77741 13.1034 8.85721C13.0236 8.93701 12.9787 9.04524 12.9787 9.1581V10.4347H7.02129V9.1581C7.02128 9.04524 6.97644 8.93701 6.89665 8.85721C6.81684 8.77741 6.70862 8.73258 6.59576 8.73257H1.15696L4.14897 3.49323ZM0.851111 9.58363H6.17023V10.8602C6.17024 10.9731 6.21508 11.0813 6.29488 11.1611C6.37468 11.2409 6.48291 11.2857 6.59576 11.2857H13.4042C13.5171 11.2857 13.6253 11.2409 13.7051 11.1611C13.7849 11.0813 13.8298 10.9731 13.8298 10.8602V9.58363H19.1489V14.0517H0.851111V9.58363Z" fill="#9E9E9E"/>
</svg>
