<svg width="16" height="12" viewBox="0 0 16 12" fill="none" xmlns="http://www.w3.org/2000/svg">
<path d="M7.96277 0.00204713C7.87816 0.0113449 7.8001 0.0519987 7.74398 0.115996C7.68786 0.179993 7.65775 0.262691 7.65958 0.34779V2.11374H3.12768C3.11528 2.11306 3.10285 2.11306 3.09045 2.11374C3.0366 2.11934 2.98487 2.13771 2.93954 2.16731C2.89421 2.19691 2.8566 2.2369 2.82981 2.28395L0.0425946 7.15627C0.0137834 7.20831 -0.000888141 7.267 4.15934e-05 7.32648V11.5818C5.06159e-05 11.6721 0.0359195 11.7586 0.0997594 11.8225C0.163599 11.8863 0.250182 11.9222 0.340465 11.9222H15.6595C15.7498 11.9222 15.8364 11.8863 15.9002 11.8225C15.9641 11.7586 15.9999 11.6721 16 11.5818V7.32648C16.0009 7.267 15.9862 7.20831 15.9574 7.15627L13.1702 2.28395C13.14 2.23175 13.0966 2.18849 13.0443 2.15858C12.9919 2.12868 12.9326 2.1132 12.8723 2.11374H8.34042V0.34779C8.34147 0.299329 8.33215 0.251203 8.3131 0.206632C8.29404 0.162061 8.26569 0.122073 8.22994 0.0893412C8.19419 0.0566099 8.15186 0.0318902 8.10578 0.0168359C8.05971 0.00178157 8.01095 -0.00326044 7.96277 0.00204713ZM3.31917 2.79459H7.65958V5.87436L6.35639 4.68819C6.32292 4.65712 6.28353 4.63311 6.24058 4.61757C6.19763 4.60204 6.152 4.5953 6.10639 4.59777C6.03875 4.60121 5.97368 4.62475 5.91949 4.66538C5.8653 4.706 5.82446 4.76187 5.80218 4.82583C5.77991 4.88979 5.77722 4.95894 5.79446 5.02443C5.8117 5.08993 5.84808 5.1488 5.89895 5.19351L7.77128 6.89563C7.83391 6.95243 7.91544 6.9839 8 6.9839C8.08456 6.9839 8.16609 6.95243 8.22872 6.89563L10.1011 5.19351C10.1681 5.13285 10.2082 5.04805 10.2127 4.95778C10.2172 4.8675 10.1856 4.77914 10.125 4.71213C10.0643 4.64512 9.97953 4.60495 9.88926 4.60046C9.79898 4.59597 9.71062 4.62753 9.64361 4.68819L8.34042 5.87436V2.79459H12.6808L15.0744 6.98605H10.7234C10.6331 6.98606 10.5465 7.02193 10.4827 7.08577C10.4188 7.14961 10.383 7.23619 10.383 7.32648V8.34775H5.61703V7.32648C5.61702 7.23619 5.58116 7.14961 5.51732 7.08577C5.45348 7.02193 5.36689 6.98606 5.27661 6.98605H0.925569L3.31917 2.79459ZM0.680889 7.6669H4.93619V8.68817C4.9362 8.77846 4.97206 8.86504 5.0359 8.92888C5.09974 8.99272 5.18633 9.02859 5.27661 9.0286H10.7234C10.8137 9.02859 10.9003 8.99272 10.9641 8.92888C11.0279 8.86504 11.0638 8.77846 11.0638 8.68817V7.6669H15.3191V11.2414H0.680889V7.6669Z" fill="#0091FF"/>
</svg>
