<svg width="20" height="27" viewBox="0 0 20 27" fill="none" xmlns="http://www.w3.org/2000/svg">
<path d="M18.3802 2.778C18.4154 2.8192 18.4665 2.8427 18.5199 2.8427C18.5738 2.8427 18.6244 2.8192 18.6601 2.778L19.9521 1.44688C20.001 1.39031 20.0129 1.31023 19.9828 1.24147C19.9521 1.17329 19.8851 1.12919 19.8116 1.12919H19.3485V0.190906C19.3487 0.0852985 19.2655 0 19.1622 0H17.8778C17.7745 0 17.691 0.0852985 17.691 0.190906V1.12919H17.2281C17.1546 1.12919 17.0876 1.17329 17.0575 1.24147C17.0271 1.31023 17.0396 1.39031 17.0881 1.44688L18.3802 2.778Z" fill="#4B7DDE"/>
<path d="M12.1784 11.8612C11.6443 11.2528 11.1167 10.573 10.6416 9.96138C10.4176 9.67241 10.2032 9.39679 10.0027 9.1464L9.98794 9.12812C10.2816 8.27369 10.4494 7.57447 10.4869 7.04934C10.582 5.71154 10.4357 4.84985 10.0402 4.41553C9.77299 4.12162 9.37176 4.01921 8.99438 4.1489C8.72405 4.24145 8.35803 4.48951 8.14875 5.14462C7.83696 6.12121 7.98803 7.85068 8.87455 9.28102C8.47899 10.3394 7.92755 11.5556 7.31846 12.7136C6.15849 13.129 5.23392 13.6753 4.57031 14.338C3.70339 15.2026 3.351 16.0608 3.60315 16.6921C3.75848 17.0832 4.11769 17.3165 4.56378 17.3165C4.87443 17.3165 5.21035 17.2019 5.53549 16.9855C6.35641 16.4371 7.42835 14.6101 8.00336 13.5515C9.19286 13.172 10.3673 13.0167 10.9642 12.9579C11.2342 12.9312 11.5023 12.91 11.7604 12.8952C12.8051 14.0223 13.6595 14.6168 14.4466 14.7651C14.6051 14.7953 14.7635 14.8103 14.9183 14.8103C15.5598 14.8103 16.0899 14.5489 16.3372 14.1111C16.5238 13.7804 16.5201 13.3945 16.3267 13.0521C15.89 12.2795 14.5719 11.8542 12.6151 11.8542C12.4743 11.8545 12.3289 11.8565 12.1784 11.8612ZM4.99085 16.1354C4.83553 16.2389 4.67595 16.3007 4.5635 16.3007C4.5422 16.3007 4.52772 16.2984 4.51949 16.2964C4.49989 16.1951 4.57031 15.7573 5.26459 15.0642C5.59057 14.7387 6.00288 14.4416 6.491 14.1787C5.8751 15.1913 5.32081 15.9152 4.99085 16.1354ZM9.09319 5.46C9.1656 5.2334 9.25533 5.13099 9.31127 5.11184C9.31269 5.11155 9.31383 5.11097 9.31496 5.11068C9.36892 5.17277 9.59835 5.5276 9.49556 6.97651C9.47767 7.22922 9.41747 7.54865 9.3161 7.92814C8.98444 7.05543 8.89329 6.08581 9.09319 5.46ZM10.8682 11.9476C10.3395 11.9996 9.53418 12.1066 8.63574 12.3239C8.98415 11.6131 9.30673 10.8927 9.57621 10.2251C9.66963 10.3446 9.76532 10.4674 9.86243 10.593C10.1876 11.0117 10.5527 11.4822 10.9313 11.9418L10.8682 11.9476ZM15.4652 13.5602C15.48 13.5863 15.4797 13.5967 15.476 13.6037C15.4343 13.6777 15.2454 13.7952 14.9169 13.7952C14.8252 13.7952 14.7275 13.7856 14.6267 13.7664C14.2166 13.689 13.7385 13.3994 13.1686 12.883C14.715 12.9584 15.34 13.3394 15.4652 13.5602Z" fill="#4B7DDE"/>
<path d="M14.2859 0H1.42831C0.640325 0 0 0.652505 0 1.45965V24.6521C0 25.4584 0.640325 26.1118 1.42831 26.1118H18.5717C19.3614 26.1118 20 25.4584 20 24.6521V5.8386L14.2859 0ZM14.2859 2.0637L17.9805 5.8386H14.2859V2.0637ZM18.572 24.6521H1.42831V1.45965H12.8573V5.8386C12.8573 6.64487 13.4962 7.29825 14.2856 7.29825H18.5717V24.6521H18.572Z" fill="#4B7DDE"/>
<path d="M7.64093 18.6719C7.52422 18.5666 7.38423 18.49 7.22521 18.445C7.06818 18.3992 6.84329 18.376 6.55678 18.376H5.6058C5.42492 18.376 5.28862 18.4183 5.20031 18.5028C5.11115 18.5881 5.06543 18.7262 5.06543 18.9127V21.7943C5.06543 21.962 5.10604 22.0926 5.18611 22.1831C5.26761 22.2759 5.37608 22.3232 5.5084 22.3232C5.63505 22.3232 5.74182 22.2759 5.8253 22.1825C5.90708 22.0908 5.94882 21.9585 5.94882 21.7894V20.8038H6.55678C7.02616 20.8038 7.38678 20.6991 7.62786 20.4922C7.8732 20.2827 7.99786 19.9729 7.99786 19.571C7.99786 19.3839 7.96776 19.2127 7.90785 19.0618C7.84765 18.9089 7.75792 18.7781 7.64093 18.6719ZM7.02644 19.8768C6.97334 19.9499 6.89753 20.0013 6.79417 20.0344C6.68427 20.0692 6.54428 20.0872 6.37731 20.0872H5.94911V19.0897H6.37731C6.76321 19.0897 6.91967 19.1683 6.98186 19.2324C7.06478 19.323 7.1051 19.4387 7.1051 19.5858C7.1051 19.7071 7.07869 19.8049 7.02644 19.8768Z" fill="#4B7DDE"/>
<path d="M11.1507 18.7331C10.9965 18.5953 10.8222 18.4999 10.6325 18.4497C10.4479 18.4009 10.2242 18.376 9.96832 18.376H9.00258C8.82397 18.376 8.69051 18.4198 8.6056 18.5068C8.5207 18.5939 8.47754 18.7302 8.47754 18.9124V21.6536C8.47754 21.7821 8.48861 21.8851 8.51133 21.9678C8.53717 22.0618 8.59283 22.1352 8.67659 22.186C8.75639 22.2353 8.86827 22.2591 9.01763 22.2591H9.98337C10.1543 22.2591 10.3105 22.2478 10.4476 22.2251C10.5873 22.2019 10.72 22.1613 10.8415 22.1047C10.9642 22.0476 11.0783 21.9704 11.182 21.8752C11.3117 21.7534 11.4199 21.6133 11.5034 21.458C11.586 21.3034 11.6482 21.1279 11.6874 20.937C11.7266 20.7478 11.7465 20.5357 11.7465 20.3074C11.7462 19.6087 11.5454 19.079 11.1507 18.7331ZM10.5053 21.355C10.4573 21.3977 10.3996 21.4319 10.3338 21.456C10.2648 21.481 10.1978 21.4969 10.1339 21.503C10.0666 21.5094 9.97144 21.5129 9.85104 21.5129H9.36036V19.1205H9.77863C9.99757 19.1205 10.1853 19.1448 10.3369 19.1927C10.4786 19.2368 10.6007 19.3439 10.6998 19.5115C10.8014 19.683 10.8531 19.9491 10.8531 20.3027C10.8531 20.8015 10.7364 21.1551 10.5053 21.355Z" fill="#4B7DDE"/>
<path d="M14.5125 18.376H12.7656C12.6491 18.376 12.5549 18.3937 12.4776 18.4299C12.395 18.4682 12.3334 18.5306 12.2942 18.6156C12.2578 18.6951 12.2402 18.7923 12.2402 18.9127V21.7891C12.2402 21.9623 12.2817 22.0955 12.3626 22.1848C12.4453 22.2765 12.5532 22.3232 12.6832 22.3232C12.8107 22.3232 12.9178 22.2774 13.0012 22.1866C13.0825 22.0969 13.1236 21.9632 13.1236 21.7891V20.63H14.2731C14.4017 20.63 14.5025 20.5984 14.5721 20.5354C14.6445 20.4701 14.6811 20.3825 14.6811 20.2746C14.6811 20.167 14.6454 20.079 14.5744 20.0135C14.5054 19.9491 14.404 19.9166 14.2731 19.9166H13.1236V19.1054H14.5127C14.6488 19.1054 14.7535 19.072 14.8243 19.0059C14.8967 18.9385 14.9333 18.8489 14.9333 18.7395C14.9333 18.6325 14.8967 18.5437 14.824 18.4752C14.7524 18.4091 14.6479 18.376 14.5125 18.376Z" fill="#4B7DDE"/>
</svg>
