<svg width="21" height="15" viewBox="0 0 21 15" fill="none" xmlns="http://www.w3.org/2000/svg">
<path d="M10.492 0C12.0531 0 13.6166 0.565351 14.8077 1.70058C15.8186 2.66407 16.4009 3.88213 16.5538 5.13808C19.0395 5.35317 20.9839 7.34228 20.9839 9.76744C20.9839 12.3362 18.7991 14.4186 16.104 14.4186H4.14799C1.85 14.4186 0 12.6553 0 10.4651C0 8.27488 1.85 6.51163 4.14799 6.51163H4.43774C4.22272 4.8013 4.80676 3.0131 6.18387 1.70058C7.3749 0.565351 8.93084 0 10.492 0ZM10.492 4.88372C10.3625 4.88326 10.2715 4.90644 10.1641 5L7.48009 7.32558C7.28916 7.48888 7.25408 7.80753 7.44198 7.9869C7.62322 8.15995 7.94642 8.18081 8.13586 8.01597L10.004 6.39535V11.3953C10.004 11.6522 10.2224 11.8605 10.492 11.8605C10.7615 11.8605 10.98 11.6522 10.98 11.3953V6.39535L12.8481 8.01597C13.0375 8.18081 13.3698 8.16814 13.542 7.9869C13.7141 7.80565 13.7044 7.49195 13.5038 7.32558L10.8199 5C10.7501 4.93912 10.6225 4.88605 10.492 4.88372Z" fill="white"/>
</svg>
