<svg width="18" height="18" viewBox="0 0 18 18" fill="none" xmlns="http://www.w3.org/2000/svg">
<path fill-rule="evenodd" clip-rule="evenodd" d="M15.2781 7.47324H16.8126C17.2797 7.47324 17.68 7.87365 17.68 8.34079V10.3428C17.68 10.81 17.2797 11.2104 16.8126 11.2104H15.2781C15.0779 11.2104 14.811 11.4106 14.7443 11.6108C14.6776 11.8777 14.6776 12.0779 14.8778 12.2781L16.012 13.4126C16.2122 13.5461 16.2789 13.813 16.2789 14.0132C16.2789 14.2134 16.1454 14.4804 16.012 14.6138L14.6109 16.0153C14.2773 16.3489 13.7435 16.3489 13.4099 16.0153L12.2757 14.8808C12.0755 14.6806 11.8086 14.6806 11.6085 14.7473C11.3416 14.814 11.2082 15.0142 11.2082 15.2812V16.8161C11.2082 17.2832 10.8078 17.6836 10.3408 17.6836H8.3392C7.87216 17.6836 7.47184 17.2832 7.47184 16.8161V15.2812C7.47184 15.081 7.27168 14.814 7.07152 14.7473C6.80464 14.6806 6.60448 14.6806 6.40432 14.8808L5.27008 16.0153C4.93648 16.3489 4.40272 16.3489 4.06912 16.0153L2.668 14.6138C2.46784 14.4804 2.40112 14.2134 2.40112 14.0132C2.40112 13.813 2.53456 13.5461 2.668 13.4126L3.80224 12.2781C4.0024 12.0779 4.0024 11.811 3.93568 11.6108C3.86896 11.3438 3.6688 11.2104 3.40192 11.2104H1.86736C1.40032 11.2104 1 10.81 1 10.3428V8.34079C1 7.87365 1.40032 7.47324 1.86736 7.47324H3.40192C3.60208 7.47324 3.86896 7.27304 3.93568 7.07284C4.0024 6.8059 4.0024 6.6057 3.80224 6.40549L2.668 5.27101C2.46784 5.13754 2.40112 4.8706 2.40112 4.6704C2.40112 4.47019 2.53456 4.20325 2.668 4.06979L4.06912 2.66836C4.40272 2.33469 4.93648 2.33469 5.27008 2.66836L6.40432 3.80285C6.60448 4.00305 6.87136 4.00305 7.07152 3.93632C7.3384 3.86958 7.47184 3.66938 7.47184 3.40244V1.86755C7.47184 1.40041 7.87216 1 8.3392 1H10.3408C10.8078 1 11.2082 1.40041 11.2082 1.86755V3.40244C11.2082 3.60264 11.4083 3.86958 11.6085 3.93632C11.8754 4.00305 12.0755 4.00305 12.2757 3.80285L13.4099 2.66836C13.7435 2.33469 14.2773 2.33469 14.6109 2.66836L16.012 4.06979C16.2122 4.20325 16.2789 4.47019 16.2789 4.6704C16.2789 4.8706 16.1454 5.13754 16.012 5.27101L14.8778 6.40549C14.6776 6.6057 14.6776 6.87263 14.7443 7.07284C14.811 7.33977 15.0112 7.47324 15.2781 7.47324ZM16.811 10.6097C16.9445 10.6097 17.0779 10.4763 17.0779 10.3428V8.34077C17.0779 8.2073 16.9445 8.07383 16.811 8.07383H15.2765C14.7427 8.07383 14.3424 7.8069 14.1422 7.33976C13.9421 6.87261 14.0755 6.33874 14.4091 6.00507L15.5433 4.87058C15.6101 4.80384 15.6101 4.60364 15.5433 4.53691L14.1422 3.13548C14.0755 3.06875 13.8753 3.06875 13.8086 3.13548L12.6744 4.26997C12.3408 4.60364 11.807 4.73711 11.34 4.53691C10.8729 4.3367 10.6061 3.9363 10.6061 3.40242V1.86753C10.6061 1.73406 10.4726 1.60059 10.3392 1.60059H8.33758C8.20414 1.60059 8.0707 1.73406 8.0707 1.86753V3.40242C8.0707 3.9363 7.80382 4.3367 7.33678 4.53691C6.86974 4.73711 6.33598 4.60364 6.00238 4.26997L4.86814 3.13548C4.80142 3.06875 4.60126 3.06875 4.53454 3.13548L3.13342 4.53691C3.0667 4.60364 3.0667 4.80384 3.13342 4.87058L4.26766 6.00507C4.60126 6.33874 4.7347 6.87261 4.53454 7.33976C4.33438 7.8069 3.93406 8.07383 3.4003 8.07383H1.86574C1.7323 8.07383 1.59886 8.2073 1.59886 8.34077V10.3428C1.59886 10.4763 1.7323 10.6097 1.86574 10.6097H3.4003C3.93406 10.6097 4.33438 10.8767 4.53454 11.3438C4.7347 11.811 4.60126 12.3448 4.26766 12.6785L3.13342 13.813C3.0667 13.8797 3.0667 14.0799 3.13342 14.1467L4.53454 15.5481C4.60126 15.6148 4.80142 15.6148 4.86814 15.5481L6.00238 14.4136C6.26926 14.2134 6.53614 14.0799 6.86974 14.0799C7.00318 14.0799 7.20334 14.0799 7.33678 14.1467C7.80382 14.3469 8.0707 14.7473 8.0707 15.2812V16.8161C8.0707 16.9495 8.20414 17.083 8.33758 17.083H10.3392C10.4726 17.083 10.6061 16.9495 10.6061 16.8161V15.2812C10.6061 14.7473 10.8729 14.3469 11.34 14.1467C11.807 13.9465 12.3408 14.0799 12.6744 14.4136L13.8086 15.5481C13.8753 15.6148 14.0755 15.6148 14.1422 15.5481L15.5433 14.1467C15.6101 14.0799 15.6101 13.8797 15.5433 13.813L14.4091 12.6785C14.0755 12.3448 13.9421 11.811 14.1422 11.3438C14.3424 10.8767 14.7427 10.6097 15.2765 10.6097H16.811Z" fill="#4B7DDE"/>
<path d="M14.7443 11.6108L14.4711 11.5197L14.4676 11.5302L14.4649 11.5409L14.7443 11.6108ZM14.8778 12.2781L15.0814 12.0745L14.8778 12.2781ZM16.012 13.4126L15.8083 13.6162L15.8285 13.6364L15.8522 13.6522L16.012 13.4126ZM16.012 14.6138L15.8083 14.4102L16.012 14.6138ZM14.6109 16.0153L14.4072 15.8116L14.6109 16.0153ZM13.4099 16.0153L13.6136 15.8116L13.4099 16.0153ZM12.2757 14.8808L12.072 15.0844L12.2757 14.8808ZM11.6085 14.7473L11.6783 15.0267L11.6891 15.024L11.6996 15.0205L11.6085 14.7473ZM7.07152 14.7473L7.16261 14.4741L7.15212 14.4706L7.14138 14.4679L7.07152 14.7473ZM6.40432 14.8808L6.60799 15.0844H6.60799L6.40432 14.8808ZM5.27008 16.0153L5.06641 15.8116H5.06641L5.27008 16.0153ZM4.06912 16.0153L4.27279 15.8116L4.06912 16.0153ZM2.668 14.6138L2.87167 14.4102L2.85151 14.39L2.82778 14.3742L2.668 14.6138ZM2.668 13.4126L2.87167 13.6162H2.87167L2.668 13.4126ZM3.80224 12.2781L3.59857 12.0745H3.59857L3.80224 12.2781ZM3.93568 11.6108L3.65628 11.6806L3.65896 11.6913L3.66245 11.7018L3.93568 11.6108ZM3.93568 7.07284L4.20891 7.16389L4.2124 7.1534L4.21508 7.14267L3.93568 7.07284ZM3.80224 6.40549L3.59857 6.60912L3.80224 6.40549ZM2.668 5.27101L2.87167 5.06738L2.85151 5.04721L2.82778 5.03139L2.668 5.27101ZM2.668 4.06979L2.87167 4.27341H2.87167L2.668 4.06979ZM4.06912 2.66836L3.86545 2.46474V2.46474L4.06912 2.66836ZM5.27008 2.66836L5.47375 2.46474L5.27008 2.66836ZM6.40432 3.80285L6.20065 4.00647L6.40432 3.80285ZM7.07152 3.93632L7.00166 3.65692L6.99092 3.6596L6.98043 3.6631L7.07152 3.93632ZM11.6085 3.93632L11.5174 4.20953L11.5279 4.21303L11.5386 4.21571L11.6085 3.93632ZM12.2757 3.80285L12.4793 4.00647V4.00647L12.2757 3.80285ZM13.4099 2.66836L13.2063 2.46474V2.46474L13.4099 2.66836ZM14.6109 2.66836L14.8145 2.46474V2.46474L14.6109 2.66836ZM16.012 4.06979L15.8083 4.27341L15.8285 4.29358L15.8522 4.3094L16.012 4.06979ZM16.012 5.27101L15.8083 5.06738L16.012 5.27101ZM14.8778 6.40549L15.0814 6.60912L14.8778 6.40549ZM14.7443 7.07284L15.0237 7.003L15.021 6.99227L15.0175 6.98178L14.7443 7.07284ZM14.1422 7.33976L14.4069 7.22633L14.1422 7.33976ZM14.4091 6.00507L14.6128 6.20869L14.4091 6.00507ZM15.5433 4.87058L15.3397 4.66695V4.66695L15.5433 4.87058ZM15.5433 4.53691L15.3397 4.74053V4.74053L15.5433 4.53691ZM14.1422 3.13548L13.9386 3.33911V3.33911L14.1422 3.13548ZM13.8086 3.13548L14.0123 3.33911V3.33911L13.8086 3.13548ZM12.6744 4.26997L12.4707 4.06634L12.4707 4.06634L12.6744 4.26997ZM6.00238 4.26997L5.79871 4.47359L6.00238 4.26997ZM4.86814 3.13548L4.66447 3.33911V3.33911L4.86814 3.13548ZM4.53454 3.13548L4.73821 3.33911V3.33911L4.53454 3.13548ZM3.13342 4.53691L3.33709 4.74053L3.33709 4.74053L3.13342 4.53691ZM3.13342 4.87058L3.33709 4.66695L3.33709 4.66695L3.13342 4.87058ZM4.26766 6.00507L4.47133 5.80144L4.26766 6.00507ZM4.53454 7.33976L4.26982 7.22633L4.53454 7.33976ZM4.26766 12.6785L4.47133 12.8821L4.26766 12.6785ZM3.13342 13.813L2.92975 13.6094L2.92975 13.6094L3.13342 13.813ZM3.13342 14.1467L3.33709 13.943H3.33709L3.13342 14.1467ZM4.53454 15.5481L4.33087 15.7517H4.33087L4.53454 15.5481ZM4.86814 15.5481L5.07181 15.7517L4.86814 15.5481ZM6.00238 14.4136L5.82956 14.1832L5.81319 14.1955L5.79871 14.21L6.00238 14.4136ZM7.33678 14.1467L7.20796 14.4043L7.21553 14.408L7.22331 14.4114L7.33678 14.1467ZM11.34 14.1467L11.2265 13.882H11.2265L11.34 14.1467ZM12.6744 14.4136L12.4707 14.6172H12.4707L12.6744 14.4136ZM13.8086 15.5481L13.605 15.7517L13.8086 15.5481ZM14.1422 15.5481L14.3459 15.7517L14.1422 15.5481ZM15.5433 14.1467L15.3397 13.943L15.5433 14.1467ZM15.5433 13.813L15.747 13.6094L15.747 13.6094L15.5433 13.813ZM14.4091 12.6785L14.2054 12.8821L14.4091 12.6785ZM16.8126 7.18524H15.2781V7.76124H16.8126V7.18524ZM17.968 8.34079C17.968 7.71465 17.4388 7.18524 16.8126 7.18524V7.76124C17.1206 7.76124 17.392 8.03265 17.392 8.34079H17.968ZM17.968 10.3428V8.34079H17.392V10.3428H17.968ZM16.8126 11.4984C17.4388 11.4984 17.968 10.969 17.968 10.3428H17.392C17.392 10.651 17.1206 10.9224 16.8126 10.9224V11.4984ZM15.2781 11.4984H16.8126V10.9224H15.2781V11.4984ZM15.0175 11.7018C15.0265 11.6749 15.0633 11.6189 15.134 11.5659C15.2062 11.5117 15.2631 11.4984 15.2781 11.4984V10.9224C15.0929 10.9224 14.9163 11.0091 14.7883 11.1051C14.6588 11.2023 14.5288 11.3464 14.4711 11.5197L15.0175 11.7018ZM15.0814 12.0745C15.0191 12.0122 15.0019 11.9663 14.9956 11.9257C14.9877 11.8745 14.9933 11.8025 15.0237 11.6806L14.4649 11.5409C14.4287 11.686 14.4008 11.8476 14.4263 12.0133C14.4534 12.1895 14.5362 12.3439 14.6741 12.4818L15.0814 12.0745ZM16.2157 13.209L15.0814 12.0745L14.6741 12.4818L15.8083 13.6162L16.2157 13.209ZM16.5669 14.0132C16.5669 13.777 16.4917 13.3863 16.1718 13.173L15.8522 13.6522C15.8895 13.6771 15.9249 13.7215 15.9517 13.7913C15.9786 13.8613 15.9909 13.9422 15.9909 14.0132H16.5669ZM16.2157 14.8175C16.3118 14.7213 16.3963 14.5907 16.457 14.4592C16.5169 14.3294 16.5669 14.1699 16.5669 14.0132H15.9909C15.9909 14.0567 15.9741 14.1308 15.934 14.2179C15.8946 14.3033 15.8456 14.3729 15.8083 14.4102L16.2157 14.8175ZM14.8145 16.2189L16.2157 14.8175L15.8083 14.4102L14.4072 15.8116L14.8145 16.2189ZM13.2063 16.2189C13.6523 16.6651 14.3685 16.6651 14.8145 16.2189L14.4072 15.8116C14.1861 16.0328 13.8347 16.0328 13.6136 15.8116L13.2063 16.2189ZM12.072 15.0844L13.2063 16.2189L13.6136 15.8116L12.4793 14.6771L12.072 15.0844ZM11.6996 15.0205C11.8375 14.9745 11.9756 14.9879 12.072 15.0844L12.4793 14.6771C12.1755 14.3732 11.7798 14.3866 11.5174 14.4741L11.6996 15.0205ZM11.4962 15.2812C11.4962 15.1953 11.5173 15.1413 11.5412 15.1085C11.5635 15.0779 11.6023 15.0457 11.6783 15.0267L11.5386 14.4679C11.3477 14.5156 11.1865 14.6169 11.0753 14.7698C10.9657 14.9205 10.9202 15.1001 10.9202 15.2812H11.4962ZM11.4962 16.8161V15.2812H10.9202V16.8161H11.4962ZM10.3408 17.9716C10.967 17.9716 11.4962 17.4422 11.4962 16.8161H10.9202C10.9202 17.1242 10.6487 17.3956 10.3408 17.3956V17.9716ZM8.3392 17.9716H10.3408V17.3956H8.3392V17.9716ZM7.18384 16.8161C7.18384 17.4422 7.71304 17.9716 8.3392 17.9716V17.3956C8.03128 17.3956 7.75984 17.1242 7.75984 16.8161H7.18384ZM7.18384 15.2812V16.8161H7.75984V15.2812H7.18384ZM6.98043 15.0205C7.00731 15.0295 7.06331 15.0663 7.11632 15.137C7.17046 15.2092 7.18384 15.2661 7.18384 15.2812H7.75984C7.75984 15.096 7.67314 14.9194 7.57716 14.7914C7.48005 14.6619 7.33589 14.5319 7.16261 14.4741L6.98043 15.0205ZM6.60799 15.0844C6.67029 15.0221 6.71614 15.0048 6.7567 14.9986C6.80785 14.9907 6.87982 14.9962 7.00166 15.0267L7.14138 14.4679C6.99634 14.4316 6.83479 14.4038 6.6691 14.4293C6.49282 14.4564 6.33851 14.5393 6.20065 14.6771L6.60799 15.0844ZM5.47375 16.2189L6.60799 15.0844L6.20065 14.6771L5.06641 15.8116L5.47375 16.2189ZM3.86545 16.2189C4.31153 16.6651 5.02767 16.6651 5.47375 16.2189L5.06641 15.8116C4.84529 16.0328 4.49391 16.0328 4.27279 15.8116L3.86545 16.2189ZM2.46433 14.8175L3.86545 16.2189L4.27279 15.8116L2.87167 14.4102L2.46433 14.8175ZM2.11312 14.0132C2.11312 14.2495 2.18827 14.6401 2.50822 14.8534L2.82778 14.3742C2.79048 14.3493 2.75515 14.305 2.72831 14.2352C2.70136 14.1651 2.68912 14.0842 2.68912 14.0132H2.11312ZM2.46433 13.209C2.36816 13.3052 2.28368 13.4358 2.22302 13.5672C2.16311 13.6971 2.11312 13.8565 2.11312 14.0132H2.68912C2.68912 13.9697 2.70585 13.8956 2.74602 13.8086C2.78544 13.7231 2.8344 13.6535 2.87167 13.6162L2.46433 13.209ZM3.59857 12.0745L2.46433 13.209L2.87167 13.6162L4.00591 12.4818L3.59857 12.0745ZM3.66245 11.7018C3.70844 11.8398 3.69504 11.978 3.59857 12.0745L4.00591 12.4818C4.30976 12.1778 4.29636 11.7821 4.20891 11.5197L3.66245 11.7018ZM3.40192 11.4984C3.48773 11.4984 3.54166 11.5195 3.57444 11.5434C3.60507 11.5657 3.63726 11.6046 3.65628 11.6806L4.21508 11.5409C4.16738 11.3501 4.06613 11.1888 3.91328 11.0776C3.76258 10.968 3.58299 10.9224 3.40192 10.9224V11.4984ZM1.86736 11.4984H3.40192V10.9224H1.86736V11.4984ZM0.712 10.3428C0.712 10.969 1.2412 11.4984 1.86736 11.4984V10.9224C1.55944 10.9224 1.288 10.651 1.288 10.3428H0.712ZM0.712 8.34079V10.3428H1.288V8.34079H0.712ZM1.86736 7.18524C1.2412 7.18524 0.712 7.71465 0.712 8.34079H1.288C1.288 8.03265 1.55944 7.76124 1.86736 7.76124V7.18524ZM3.40192 7.18524H1.86736V7.76124H3.40192V7.18524ZM3.66245 6.98178C3.65348 7.0087 3.61668 7.06472 3.54602 7.11773C3.47383 7.17189 3.4169 7.18524 3.40192 7.18524V7.76124C3.5871 7.76124 3.76369 7.6745 3.89166 7.5785C4.02116 7.48136 4.15116 7.33718 4.20891 7.16389L3.66245 6.98178ZM3.59857 6.60912C3.66087 6.67143 3.67814 6.7173 3.68439 6.75792C3.69226 6.80912 3.68674 6.88114 3.65628 7.003L4.21508 7.14267C4.25135 6.9976 4.27918 6.83605 4.25369 6.67036C4.22658 6.49409 4.14377 6.33976 4.00591 6.20187L3.59857 6.60912ZM2.46433 5.47463L3.59857 6.60912L4.00591 6.20187L2.87167 5.06738L2.46433 5.47463ZM2.11312 4.6704C2.11312 4.90664 2.18827 5.29727 2.50822 5.51062L2.82778 5.03139C2.79048 5.00652 2.75515 4.96215 2.72831 4.89236C2.70136 4.82228 2.68912 4.74141 2.68912 4.6704H2.11312ZM2.46433 3.86616C2.36816 3.96235 2.28368 4.09294 2.22302 4.2244C2.16311 4.35424 2.11312 4.51369 2.11312 4.6704H2.68912C2.68912 4.6269 2.70585 4.55278 2.74602 4.46573C2.78544 4.3803 2.8344 4.31069 2.87167 4.27341L2.46433 3.86616ZM3.86545 2.46474L2.46433 3.86616L2.87167 4.27341L4.27279 2.87199L3.86545 2.46474ZM5.47375 2.46474C5.02767 2.01856 4.31153 2.01856 3.86545 2.46474L4.27279 2.87199C4.49391 2.65081 4.84529 2.65081 5.06641 2.87199L5.47375 2.46474ZM6.60799 3.59922L5.47375 2.46474L5.06641 2.87199L6.20065 4.00647L6.60799 3.59922ZM6.98043 3.6631C6.84252 3.70908 6.70443 3.69569 6.60799 3.59922L6.20065 4.00647C6.50453 4.31041 6.9002 4.29702 7.16261 4.20953L6.98043 3.6631ZM7.18384 3.40244C7.18384 3.4883 7.16268 3.54228 7.13883 3.57509C7.11654 3.60573 7.07767 3.63791 7.00166 3.65692L7.14138 4.21571C7.33225 4.16799 7.49354 4.0667 7.60469 3.91382C7.71428 3.76311 7.75984 3.58352 7.75984 3.40244H7.18384ZM7.18384 1.86755V3.40244H7.75984V1.86755H7.18384ZM8.3392 0.712C7.71304 0.712 7.18384 1.24141 7.18384 1.86755H7.75984C7.75984 1.55941 8.03128 1.288 8.3392 1.288V0.712ZM10.3408 0.712H8.3392V1.288H10.3408V0.712ZM11.4962 1.86755C11.4962 1.24141 10.967 0.712 10.3408 0.712V1.288C10.6487 1.288 10.9202 1.55941 10.9202 1.86755H11.4962ZM11.4962 3.40244V1.86755H10.9202V3.40244H11.4962ZM11.6996 3.6631C11.6727 3.65414 11.6167 3.61735 11.5637 3.54665C11.5095 3.47445 11.4962 3.41748 11.4962 3.40244H10.9202C10.9202 3.58761 11.0069 3.76421 11.1028 3.89221C11.2 4.02172 11.3441 4.15176 11.5174 4.20953L11.6996 3.6631ZM12.072 3.59922C12.0097 3.66154 11.9639 3.67879 11.9233 3.68503C11.8722 3.6929 11.8002 3.68738 11.6783 3.65692L11.5386 4.21571C11.6837 4.25198 11.8452 4.27983 12.0109 4.25433C12.1872 4.22721 12.3415 4.14436 12.4793 4.00647L12.072 3.59922ZM13.2063 2.46474L12.072 3.59922L12.4793 4.00647L13.6136 2.87199L13.2063 2.46474ZM14.8145 2.46474C14.3685 2.01856 13.6523 2.01856 13.2063 2.46474L13.6136 2.87199C13.8347 2.65081 14.1861 2.65081 14.4072 2.87199L14.8145 2.46474ZM16.2157 3.86616L14.8145 2.46474L14.4072 2.87199L15.8083 4.27341L16.2157 3.86616ZM16.5669 4.6704C16.5669 4.43416 16.4917 4.04352 16.1718 3.83017L15.8522 4.3094C15.8895 4.33427 15.9249 4.37865 15.9517 4.44843C15.9786 4.51852 15.9909 4.59938 15.9909 4.6704H16.5669ZM16.2157 5.47463C16.3118 5.37844 16.3963 5.24785 16.457 5.11639C16.5169 4.98656 16.5669 4.8271 16.5669 4.6704H15.9909C15.9909 4.71389 15.9741 4.78801 15.934 4.87506C15.8946 4.96049 15.8456 5.0301 15.8083 5.06738L16.2157 5.47463ZM15.0814 6.60912L16.2157 5.47463L15.8083 5.06738L14.6741 6.20187L15.0814 6.60912ZM15.0175 6.98178C14.9716 6.84379 14.985 6.70561 15.0814 6.60912L14.6741 6.20187C14.3702 6.50578 14.3836 6.90148 14.4711 7.16389L15.0175 6.98178ZM15.2781 7.18524C15.1923 7.18524 15.1383 7.16409 15.1056 7.14024C15.0749 7.11796 15.0427 7.07907 15.0237 7.003L14.4649 7.14267C14.5126 7.33354 14.6139 7.49485 14.7667 7.60604C14.9174 7.71566 15.097 7.76124 15.2781 7.76124V7.18524ZM16.7899 10.3428C16.7899 10.3282 16.7934 10.3202 16.794 10.3191C16.7945 10.3179 16.7937 10.3198 16.7908 10.3227C16.7879 10.3256 16.786 10.3264 16.7872 10.3258C16.7884 10.3253 16.7964 10.3217 16.811 10.3217V10.8977C16.9714 10.8977 17.1077 10.8204 17.1982 10.73C17.2886 10.6395 17.3659 10.5032 17.3659 10.3428H16.7899ZM16.7899 8.34077V10.3428H17.3659V8.34077H16.7899ZM16.811 8.36183C16.7964 8.36183 16.7884 8.35829 16.7872 8.35775C16.786 8.3572 16.7879 8.35797 16.7908 8.36088C16.7937 8.36379 16.7945 8.36567 16.794 8.36453C16.7934 8.36337 16.7899 8.35534 16.7899 8.34077H17.3659C17.3659 8.18039 17.2886 8.0441 17.1982 7.95363C17.1077 7.86315 16.9714 7.78583 16.811 7.78583V8.36183ZM15.2765 8.36183H16.811V7.78583H15.2765V8.36183ZM13.8775 7.45318C14.1239 8.02833 14.6298 8.36183 15.2765 8.36183V7.78583C14.8556 7.78583 14.5608 7.58546 14.4069 7.22633L13.8775 7.45318ZM14.2054 5.80144C13.7955 6.21145 13.6272 6.86908 13.8775 7.45318L14.4069 7.22633C14.2569 6.87615 14.3555 6.46602 14.6128 6.20869L14.2054 5.80144ZM15.3397 4.66695L14.2054 5.80144L14.6128 6.20869L15.747 5.0742L15.3397 4.66695ZM15.3397 4.74053C15.323 4.72387 15.3141 4.70885 15.3099 4.70086C15.3056 4.6926 15.3041 4.68747 15.3039 4.68692C15.3038 4.68651 15.3054 4.69277 15.3054 4.70374C15.3054 4.71472 15.3038 4.72098 15.3039 4.72057C15.3041 4.72001 15.3056 4.71488 15.3099 4.70662C15.3141 4.69863 15.323 4.68361 15.3397 4.66695L15.747 5.0742C15.8112 5.01003 15.8421 4.93369 15.8578 4.87878C15.8746 4.81998 15.8814 4.75951 15.8814 4.70374C15.8814 4.64798 15.8746 4.58751 15.8578 4.52871C15.8421 4.4738 15.8112 4.39746 15.747 4.33328L15.3397 4.74053ZM13.9386 3.33911L15.3397 4.74053L15.747 4.33328L14.3459 2.93186L13.9386 3.33911ZM14.0123 3.33911C13.9956 3.35577 13.9806 3.36474 13.9726 3.36891C13.9644 3.37322 13.9592 3.3747 13.9586 3.37486C13.9582 3.37498 13.9645 3.37343 13.9754 3.37343C13.9864 3.37343 13.9926 3.37498 13.9922 3.37486C13.9916 3.3747 13.9865 3.37322 13.9782 3.36891C13.9702 3.36474 13.9552 3.35577 13.9386 3.33911L14.3459 2.93186C14.2817 2.86768 14.2054 2.83672 14.1505 2.82103C14.0917 2.80423 14.0312 2.79743 13.9754 2.79743C13.9197 2.79743 13.8592 2.80423 13.8004 2.82103C13.7455 2.83672 13.6691 2.86768 13.605 2.93186L14.0123 3.33911ZM12.8781 4.47359L14.0123 3.33911L13.605 2.93186L12.4707 4.06634L12.8781 4.47359ZM11.2265 4.80161C11.8106 5.05198 12.4681 4.88361 12.8781 4.47359L12.4707 4.06634C12.2134 4.32367 11.8035 4.42225 11.4535 4.2722L11.2265 4.80161ZM10.3181 3.40242C10.3181 4.04914 10.6514 4.5551 11.2265 4.80161L11.4535 4.2722C11.0944 4.11831 10.8941 3.82346 10.8941 3.40242H10.3181ZM10.3181 1.86753V3.40242H10.8941V1.86753H10.3181ZM10.3392 1.88859C10.3246 1.88859 10.3165 1.88505 10.3154 1.8845C10.3142 1.88396 10.3161 1.88472 10.319 1.88763C10.3219 1.89054 10.3227 1.89243 10.3221 1.89128C10.3216 1.89012 10.3181 1.88209 10.3181 1.86753H10.8941C10.8941 1.70715 10.8168 1.57086 10.7263 1.48038C10.6359 1.38991 10.4996 1.31259 10.3392 1.31259V1.88859ZM8.33758 1.88859H10.3392V1.31259H8.33758V1.88859ZM8.3587 1.86753C8.3587 1.88209 8.35517 1.89012 8.35463 1.89128C8.35409 1.89243 8.35486 1.89054 8.35777 1.88763C8.36068 1.88472 8.36256 1.88396 8.3614 1.8845C8.36023 1.88505 8.35217 1.88859 8.33758 1.88859V1.31259C8.17717 1.31259 8.04089 1.38991 7.95043 1.48038C7.85998 1.57086 7.7827 1.70715 7.7827 1.86753H8.3587ZM8.3587 3.40242V1.86753H7.7827V3.40242H8.3587ZM7.45025 4.80161C8.02533 4.5551 8.3587 4.04914 8.3587 3.40242H7.7827C7.7827 3.82346 7.58232 4.11831 7.22331 4.2722L7.45025 4.80161ZM5.79871 4.47359C6.20864 4.88361 6.8662 5.05198 7.45025 4.80161L7.22331 4.2722C6.87329 4.42225 6.46332 4.32367 6.20605 4.06634L5.79871 4.47359ZM4.66447 3.33911L5.79871 4.47359L6.20605 4.06634L5.07181 2.93186L4.66447 3.33911ZM4.73821 3.33911C4.72156 3.35577 4.70653 3.36474 4.69854 3.36891C4.69027 3.37322 4.68514 3.3747 4.68457 3.37486C4.68414 3.37498 4.69039 3.37343 4.70134 3.37343C4.7123 3.37343 4.71854 3.37498 4.71812 3.37486C4.71755 3.3747 4.71241 3.37322 4.70415 3.36891C4.69615 3.36474 4.68113 3.35577 4.66447 3.33911L5.07181 2.93186C5.00764 2.86768 4.93131 2.83672 4.87639 2.82103C4.81758 2.80423 4.75711 2.79743 4.70134 2.79743C4.64558 2.79743 4.5851 2.80423 4.5263 2.82103C4.47138 2.83672 4.39504 2.86768 4.33087 2.93186L4.73821 3.33911ZM3.33709 4.74053L4.73821 3.33911L4.33087 2.93186L2.92975 4.33328L3.33709 4.74053ZM3.33709 4.66695C3.35375 4.68361 3.36271 4.69863 3.36688 4.70662C3.37119 4.71488 3.37266 4.72001 3.37282 4.72057C3.37293 4.72098 3.37138 4.71472 3.37138 4.70374C3.37138 4.69277 3.37293 4.68651 3.37282 4.68692C3.37266 4.68747 3.37119 4.6926 3.36688 4.70086C3.36271 4.70885 3.35375 4.72387 3.33709 4.74053L2.92975 4.33328C2.86559 4.39746 2.83465 4.4738 2.81897 4.52871C2.80217 4.58751 2.79538 4.64798 2.79538 4.70374C2.79538 4.75951 2.80217 4.81998 2.81897 4.87878C2.83465 4.93369 2.86559 5.01003 2.92975 5.0742L3.33709 4.66695ZM4.47133 5.80144L3.33709 4.66695L2.92975 5.0742L4.06399 6.20869L4.47133 5.80144ZM4.79927 7.45318C5.04954 6.86908 4.88125 6.21145 4.47133 5.80144L4.06399 6.20869C4.32127 6.46602 4.41986 6.87615 4.26982 7.22633L4.79927 7.45318ZM3.4003 8.36183C4.04697 8.36183 4.55283 8.02833 4.79927 7.45318L4.26982 7.22633C4.11594 7.58546 3.82115 7.78583 3.4003 7.78583V8.36183ZM1.86574 8.36183H3.4003V7.78583H1.86574V8.36183ZM1.88686 8.34077C1.88686 8.35534 1.88333 8.36337 1.88279 8.36453C1.88225 8.36567 1.88302 8.36379 1.88593 8.36088C1.88884 8.35797 1.89072 8.3572 1.88956 8.35775C1.88839 8.35829 1.88033 8.36183 1.86574 8.36183V7.78583C1.70533 7.78583 1.56905 7.86315 1.47859 7.95363C1.38814 8.0441 1.31086 8.18039 1.31086 8.34077H1.88686ZM1.88686 10.3428V8.34077H1.31086V10.3428H1.88686ZM1.86574 10.3217C1.88033 10.3217 1.88839 10.3253 1.88956 10.3258C1.89072 10.3264 1.88884 10.3256 1.88593 10.3227C1.88302 10.3198 1.88225 10.3179 1.88279 10.3191C1.88333 10.3202 1.88686 10.3282 1.88686 10.3428H1.31086C1.31086 10.5032 1.38814 10.6395 1.47859 10.73C1.56905 10.8204 1.70533 10.8977 1.86574 10.8977V10.3217ZM3.4003 10.3217H1.86574V10.8977H3.4003V10.3217ZM4.79927 11.2304C4.55283 10.6552 4.04697 10.3217 3.4003 10.3217V10.8977C3.82115 10.8977 4.11594 11.0981 4.26982 11.4573L4.79927 11.2304ZM4.47133 12.8821C4.88125 12.4721 5.04954 11.8145 4.79927 11.2304L4.26982 11.4573C4.41986 11.8074 4.32127 12.2176 4.06399 12.4749L4.47133 12.8821ZM3.33709 14.0166L4.47133 12.8821L4.06399 12.4749L2.92975 13.6094L3.33709 14.0166ZM3.33709 13.943C3.35375 13.9597 3.36271 13.9747 3.36688 13.9827C3.37119 13.991 3.37266 13.9961 3.37282 13.9967C3.37293 13.9971 3.37138 13.9908 3.37138 13.9798C3.37138 13.9689 3.37293 13.9626 3.37282 13.963C3.37266 13.9636 3.37119 13.9687 3.36688 13.977C3.36271 13.9849 3.35375 14 3.33709 14.0166L2.92975 13.6094C2.86559 13.6736 2.83465 13.7499 2.81897 13.8048C2.80217 13.8636 2.79538 13.9241 2.79538 13.9798C2.79538 14.0356 2.80217 14.0961 2.81897 14.1549C2.83465 14.2098 2.86559 14.2861 2.92975 14.3503L3.33709 13.943ZM4.73821 15.3445L3.33709 13.943L2.92975 14.3503L4.33087 15.7517L4.73821 15.3445ZM4.66447 15.3445C4.68113 15.3278 4.69615 15.3188 4.70415 15.3147C4.71241 15.3104 4.71755 15.3089 4.71812 15.3087C4.71854 15.3086 4.7123 15.3101 4.70134 15.3101C4.69039 15.3101 4.68414 15.3086 4.68457 15.3087C4.68513 15.3089 4.69027 15.3104 4.69854 15.3147C4.70653 15.3188 4.72156 15.3278 4.73821 15.3445L4.33087 15.7517C4.39504 15.8159 4.47138 15.8469 4.5263 15.8625C4.5851 15.8794 4.64558 15.8861 4.70134 15.8861C4.75711 15.8861 4.81758 15.8794 4.87639 15.8625C4.93131 15.8469 5.00764 15.8159 5.07181 15.7517L4.66447 15.3445ZM5.79871 14.21L4.66447 15.3445L5.07181 15.7517L6.20605 14.6172L5.79871 14.21ZM6.86974 13.7919C6.44884 13.7919 6.12171 13.9641 5.82956 14.1832L6.17521 14.644C6.41682 14.4627 6.62345 14.3679 6.86974 14.3679V13.7919ZM7.4656 13.8891C7.35268 13.8326 7.22858 13.8114 7.13193 13.8017C7.03212 13.7917 6.93486 13.7919 6.86974 13.7919V14.3679C6.93807 14.3679 7.0076 14.3681 7.0746 14.3748C7.14474 14.3819 7.18744 14.394 7.20796 14.4043L7.4656 13.8891ZM8.3587 15.2812C8.3587 14.6344 8.02533 14.1285 7.45025 13.882L7.22331 14.4114C7.58232 14.5653 7.7827 14.8601 7.7827 15.2812H8.3587ZM8.3587 16.8161V15.2812H7.7827V16.8161H8.3587ZM8.33758 16.795C8.35217 16.795 8.36023 16.7985 8.3614 16.7991C8.36256 16.7996 8.36068 16.7989 8.35777 16.7959C8.35486 16.793 8.35409 16.7912 8.35463 16.7923C8.35517 16.7935 8.3587 16.8015 8.3587 16.8161H7.7827C7.7827 16.9764 7.85998 17.1127 7.95043 17.2032C8.04089 17.2937 8.17717 17.371 8.33758 17.371V16.795ZM10.3392 16.795H8.33758V17.371H10.3392V16.795ZM10.3181 16.8161C10.3181 16.8015 10.3216 16.7935 10.3221 16.7923C10.3227 16.7912 10.3219 16.793 10.319 16.7959C10.3161 16.7989 10.3142 16.7996 10.3154 16.7991C10.3165 16.7985 10.3246 16.795 10.3392 16.795V17.371C10.4996 17.371 10.6359 17.2937 10.7263 17.2032C10.8168 17.1127 10.8941 16.9764 10.8941 16.8161H10.3181ZM10.3181 15.2812V16.8161H10.8941V15.2812H10.3181ZM11.2265 13.882C10.6514 14.1285 10.3181 14.6344 10.3181 15.2812H10.8941C10.8941 14.8601 11.0944 14.5653 11.4535 14.4114L11.2265 13.882ZM12.8781 14.21C12.4681 13.8 11.8106 13.6316 11.2265 13.882L11.4535 14.4114C11.8035 14.2613 12.2134 14.3599 12.4707 14.6172L12.8781 14.21ZM14.0123 15.3445L12.8781 14.21L12.4707 14.6172L13.605 15.7517L14.0123 15.3445ZM13.9386 15.3445C13.9552 15.3278 13.9702 15.3188 13.9782 15.3147C13.9865 15.3104 13.9916 15.3089 13.9922 15.3087C13.9926 15.3086 13.9864 15.3101 13.9754 15.3101C13.9645 15.3101 13.9582 15.3086 13.9586 15.3087C13.9592 15.3089 13.9644 15.3104 13.9726 15.3147C13.9806 15.3188 13.9956 15.3278 14.0123 15.3445L13.605 15.7517C13.6691 15.8159 13.7455 15.8469 13.8004 15.8625C13.8592 15.8794 13.9197 15.8861 13.9754 15.8861C14.0312 15.8861 14.0917 15.8794 14.1505 15.8625C14.2054 15.8469 14.2817 15.8159 14.3459 15.7517L13.9386 15.3445ZM15.3397 13.943L13.9386 15.3445L14.3459 15.7517L15.747 14.3503L15.3397 13.943ZM15.3397 14.0166C15.323 14 15.3141 13.9849 15.3099 13.977C15.3056 13.9687 15.3041 13.9636 15.3039 13.963C15.3038 13.9626 15.3054 13.9689 15.3054 13.9798C15.3054 13.9908 15.3038 13.9971 15.3039 13.9967C15.3041 13.9961 15.3056 13.991 15.3099 13.9827C15.3141 13.9747 15.323 13.9597 15.3397 13.943L15.747 14.3503C15.8112 14.2861 15.8421 14.2098 15.8578 14.1549C15.8746 14.0961 15.8814 14.0356 15.8814 13.9798C15.8814 13.9241 15.8746 13.8636 15.8578 13.8048C15.8421 13.7499 15.8112 13.6736 15.747 13.6094L15.3397 14.0166ZM14.2054 12.8821L15.3397 14.0166L15.747 13.6094L14.6128 12.4749L14.2054 12.8821ZM13.8775 11.2304C13.6272 11.8145 13.7955 12.4721 14.2054 12.8821L14.6128 12.4749C14.3555 12.2176 14.2569 11.8074 14.4069 11.4573L13.8775 11.2304ZM15.2765 10.3217C14.6298 10.3217 14.1239 10.6552 13.8775 11.2304L14.4069 11.4573C14.5608 11.0981 14.8556 10.8977 15.2765 10.8977V10.3217ZM16.811 10.3217H15.2765V10.8977H16.811V10.3217Z" fill="#4B7DDE"/>
<path fill-rule="evenodd" clip-rule="evenodd" d="M6.53809 9.34191C6.53809 7.80702 7.80577 6.53906 9.34033 6.53906C10.8749 6.53906 12.1426 7.80702 12.1426 9.34191C12.1426 10.8768 10.8749 12.1448 9.34033 12.1448C7.80577 12.1448 6.53809 10.8768 6.53809 9.34191ZM7.20422 9.34191C7.20422 10.4764 8.1383 11.4774 9.33926 11.4774C10.5402 11.4774 11.4743 10.4764 11.4743 9.34191C11.4743 8.20742 10.4735 7.20641 9.33926 7.20641C8.20502 7.20641 7.20422 8.20742 7.20422 9.34191Z" fill="#4B7DDE"/>
<path d="M9.34033 6.25106C7.64665 6.25106 6.25009 7.64802 6.25009 9.34191H6.82609C6.82609 7.96602 7.96488 6.82706 9.34033 6.82706V6.25106ZM12.4306 9.34191C12.4306 7.64802 11.034 6.25106 9.34033 6.25106V6.82706C10.7158 6.82706 11.8546 7.96602 11.8546 9.34191H12.4306ZM9.34033 12.4328C11.034 12.4328 12.4306 11.0358 12.4306 9.34191H11.8546C11.8546 10.7178 10.7158 11.8568 9.34033 11.8568V12.4328ZM6.25009 9.34191C6.25009 11.0358 7.64665 12.4328 9.34033 12.4328V11.8568C7.96488 11.8568 6.82609 10.7178 6.82609 9.34191H6.25009ZM9.33926 11.1894C8.30322 11.1894 7.49222 10.3233 7.49222 9.34191H6.91622C6.91622 10.6295 7.97337 11.7654 9.33926 11.7654V11.1894ZM11.1863 9.34191C11.1863 10.3233 10.3753 11.1894 9.33926 11.1894V11.7654C10.7051 11.7654 11.7623 10.6295 11.7623 9.34191H11.1863ZM9.33926 7.49441C10.3144 7.49441 11.1863 8.36642 11.1863 9.34191H11.7623C11.7623 8.04843 10.6326 6.91841 9.33926 6.91841V7.49441ZM7.49222 9.34191C7.49222 8.36642 8.36413 7.49441 9.33926 7.49441V6.91841C8.0459 6.91841 6.91622 8.04843 6.91622 9.34191H7.49222Z" fill="#4B7DDE"/>
</svg>
