<svg width="16" height="16" viewBox="0 0 16 16" fill="none" xmlns="http://www.w3.org/2000/svg">
<path d="M9.35379 6.94126L14.0305 1.23072H1.96947L6.69544 6.94126C6.79389 7.08895 6.84312 7.23664 6.84312 7.38432V12.5041L9.15688 13.6364V7.33509C9.15688 7.18741 9.25533 7.03972 9.35379 6.94126ZM15.852 1.03381L10.4368 7.58124V14.621C10.4368 15.1132 9.94454 15.4086 9.55071 15.2117L5.957 13.4887C5.76009 13.3902 5.56317 13.1933 5.56317 12.898V7.58124L0.148004 1.03381C-0.196598 0.639975 0.0987753 0 0.640292 0H15.3597C15.9012 0 16.1966 0.590746 15.852 1.03381Z" fill="#4B7DDE"/>
</svg>
