<svg width="26" height="26" viewBox="0 0 26 26" fill="none" xmlns="http://www.w3.org/2000/svg">
<rect width="26" height="26" rx="13" fill="#6DD400" fill-opacity="0.1"/>
<path fill-rule="evenodd" clip-rule="evenodd" d="M10.8644 9.45557C10.8441 9.45759 10.8241 9.46189 10.8048 9.46838C10.1974 9.65493 9.7672 9.98483 9.53489 10.4144C9.30258 10.844 9.27323 11.3475 9.37296 11.859C9.57242 12.882 10.2802 13.9816 11.1755 14.8974C12.0708 15.8131 13.1503 16.5461 14.1798 16.7596C14.6945 16.8663 15.207 16.8381 15.6499 16.6062C16.0929 16.3742 16.4453 15.9417 16.6642 15.3235C16.7057 15.2042 16.6599 15.0719 16.5534 15.0039L14.6102 13.7851L14.6059 13.7809C14.5963 13.7746 14.5864 13.7689 14.5761 13.7639C14.5475 13.7453 14.5157 13.7323 14.4823 13.7255C14.4795 13.7255 14.4767 13.7255 14.4738 13.7255C14.4668 13.7238 14.4597 13.7224 14.4525 13.7213C14.4511 13.7213 14.4497 13.7213 14.4482 13.7213C14.4028 13.7187 14.3574 13.7274 14.3161 13.7469C14.3012 13.7541 14.2869 13.7626 14.2735 13.7724C14.2647 13.7776 14.2562 13.7833 14.248 13.7895C14.245 13.7937 14.2422 13.7979 14.2394 13.8023C14.2287 13.8115 14.2188 13.8214 14.2096 13.8321L13.7835 14.2625C13.0109 13.8736 12.4168 13.2216 11.8829 12.3407L12.2749 11.9529C12.2824 11.9462 12.2896 11.939 12.2963 11.9316C12.3022 11.9261 12.3079 11.9204 12.3133 11.9145C12.3133 11.9131 12.3133 11.9117 12.3133 11.9103C12.3192 11.9049 12.3249 11.8992 12.3303 11.8932C12.3304 11.8918 12.3304 11.8904 12.3303 11.889C12.3333 11.8848 12.3362 11.8806 12.3389 11.8762C12.3418 11.8734 12.3446 11.8706 12.3474 11.8677C12.3505 11.8608 12.3534 11.8537 12.3559 11.8464C12.3559 11.845 12.3559 11.8436 12.3559 11.8422C12.3574 11.8394 12.3588 11.8366 12.3602 11.8337C12.3632 11.8282 12.3661 11.8225 12.3687 11.8167C12.3704 11.8097 12.3718 11.8026 12.373 11.7954C12.373 11.794 12.373 11.7926 12.373 11.7912C12.3748 11.7827 12.3762 11.7742 12.3772 11.7656C12.3772 11.7642 12.3772 11.7628 12.3772 11.7614C12.3775 11.7543 12.3775 11.7472 12.3772 11.7401C12.3772 11.7387 12.3772 11.7372 12.3772 11.7358C12.3775 11.7287 12.3775 11.7216 12.3772 11.7145C12.3773 11.7117 12.3773 11.7089 12.3772 11.7061C12.3761 11.6989 12.3747 11.6918 12.373 11.6848C12.373 11.6834 12.373 11.682 12.373 11.6805C12.3687 11.6644 12.363 11.6487 12.3559 11.6337C12.3559 11.6323 12.3559 11.6309 12.3559 11.6294C12.351 11.6177 12.3453 11.6063 12.3389 11.5954L12.3346 11.5869C12.3332 11.5855 12.3318 11.5841 12.3303 11.5827L11.1159 9.58836C11.068 9.50872 10.9829 9.45894 10.89 9.45625C10.8815 9.45585 10.873 9.45585 10.8644 9.45625V9.45557ZM10.7664 10.0564L11.7593 11.697L11.346 12.1061C11.2595 12.1934 11.242 12.3278 11.3034 12.4343C11.9342 13.5266 12.6815 14.3764 13.7281 14.8377C13.8307 14.8833 13.9508 14.8613 14.0306 14.7823L14.4696 14.3433L16.0718 15.3448C15.8944 15.7441 15.6631 15.9818 15.3985 16.1203C15.0921 16.2808 14.7177 16.3112 14.2906 16.2226C13.4362 16.0455 12.4043 15.374 11.5633 14.5138C10.7223 13.6536 10.0715 12.6076 9.90563 11.7567C9.82268 11.3312 9.85932 10.9648 10.0164 10.6743C10.1517 10.4242 10.3815 10.21 10.7664 10.0564Z" fill="#6DD400"/>
<path fill-rule="evenodd" clip-rule="evenodd" d="M13 7.13623C9.6903 7.13623 7 9.82514 7 13.1362C7 14.3394 7.35654 15.464 7.98519 16.4287L7.31419 18.6679C7.28485 18.7659 7.31281 18.8721 7.38662 18.9429C7.46044 19.0138 7.56768 19.0373 7.66439 19.004L9.85609 18.2476C10.7687 18.8108 11.8479 19.1362 13 19.1362C16.3109 19.1362 18.9999 16.4471 18.9999 13.1362C18.9999 9.82523 16.3109 7.13623 13 7.13623ZM13 7.6816C16.0163 7.6816 18.4545 10.1199 18.4545 13.1362C18.4545 16.1525 16.0163 18.5908 13 18.5908C11.9065 18.5908 10.8896 18.2701 10.0393 17.7184C9.96884 17.6726 9.88127 17.6619 9.80189 17.6893L7.98936 18.3149L8.54436 16.4626C8.56795 16.3839 8.55477 16.2987 8.50848 16.2308C7.8923 15.3267 7.54537 14.2737 7.54537 13.1362C7.54537 10.1199 9.98507 7.6816 13 7.6816Z" fill="#6DD400"/>
<path d="M7.98519 16.4287L8.17677 16.4861L8.2034 16.3973L8.15275 16.3195L7.98519 16.4287ZM7.31419 18.6679L7.12261 18.6105L7.1226 18.6105L7.31419 18.6679ZM7.66439 19.004L7.72961 19.193L7.72964 19.193L7.66439 19.004ZM9.85609 18.2476L9.96114 18.0774L9.88046 18.0276L9.79085 18.0585L9.85609 18.2476ZM10.0393 17.7184L10.1482 17.5506L10.1481 17.5506L10.0393 17.7184ZM9.80189 17.6893L9.73665 17.5003L9.73664 17.5003L9.80189 17.6893ZM7.98936 18.3149L7.79778 18.2575L7.68579 18.6312L8.05461 18.5039L7.98936 18.3149ZM8.54436 16.4626L8.73594 16.5201L8.73595 16.5201L8.54436 16.4626ZM8.50848 16.2308L8.67375 16.1182L8.67375 16.1182L8.50848 16.2308ZM13 6.93623C9.57987 6.93623 6.8 9.71466 6.8 13.1362H7.2C7.2 9.93563 9.80073 7.33623 13 7.33623V6.93623ZM6.8 13.1362C6.8 14.3798 7.16875 15.5421 7.81762 16.5379L8.15275 16.3195C7.54433 15.3858 7.2 14.2989 7.2 13.1362H6.8ZM7.7936 16.3713L7.12261 18.6105L7.50577 18.7253L8.17677 16.4861L7.7936 16.3713ZM7.1226 18.6105C7.07173 18.7804 7.12021 18.9645 7.24815 19.0872L7.5251 18.7986C7.50542 18.7797 7.49796 18.7514 7.50579 18.7253L7.1226 18.6105ZM7.24815 19.0872C7.37609 19.21 7.56198 19.2509 7.72961 19.193L7.59917 18.8149C7.57338 18.8238 7.54479 18.8175 7.5251 18.7986L7.24815 19.0872ZM7.72964 19.193L9.92134 18.4366L9.79085 18.0585L7.59914 18.8149L7.72964 19.193ZM9.75105 18.4178C10.6944 19 11.8099 19.3362 13 19.3362V18.9362C11.8859 18.9362 10.843 18.6216 9.96114 18.0774L9.75105 18.4178ZM13 19.3362C16.4214 19.3362 19.1999 16.5576 19.1999 13.1362H18.7999C18.7999 16.3367 16.2005 18.9362 13 18.9362V19.3362ZM19.1999 13.1362C19.1999 9.71477 16.4214 6.93623 13 6.93623V7.33623C16.2005 7.33623 18.7999 9.93568 18.7999 13.1362H19.1999ZM13 7.8816C15.9058 7.8816 18.2545 10.2303 18.2545 13.1362H18.6545C18.6545 10.0094 16.1267 7.4816 13 7.4816V7.8816ZM18.2545 13.1362C18.2545 16.042 15.9058 18.3908 13 18.3908V18.7908C16.1267 18.7908 18.6545 16.263 18.6545 13.1362H18.2545ZM13 18.3908C11.9462 18.3908 10.9669 18.0818 10.1482 17.5506L9.93043 17.8861C10.8123 18.4583 11.8669 18.7908 13 18.7908V18.3908ZM10.1481 17.5506C10.026 17.4713 9.87425 17.4528 9.73665 17.5003L9.86713 17.8784C9.8883 17.8711 9.91165 17.8739 9.93043 17.8861L10.1481 17.5506ZM9.73664 17.5003L7.92411 18.1258L8.05461 18.5039L9.86714 17.8784L9.73664 17.5003ZM8.18094 18.3723L8.73594 16.5201L8.35278 16.4052L7.79778 18.2575L8.18094 18.3723ZM8.73595 16.5201C8.77684 16.3836 8.75399 16.2359 8.67375 16.1182L8.34321 16.3434C8.35555 16.3615 8.35907 16.3842 8.35278 16.4052L8.73595 16.5201ZM8.67375 16.1182C8.07912 15.2457 7.74537 14.2316 7.74537 13.1362H7.34537C7.34537 14.3157 7.70549 15.4077 8.34321 16.3434L8.67375 16.1182ZM7.74537 13.1362C7.74537 10.2304 10.0955 7.8816 13 7.8816V7.4816C9.87464 7.4816 7.34537 10.0095 7.34537 13.1362H7.74537Z" fill="#6DD400"/>
</svg>
