<svg width="26" height="26" viewBox="0 0 26 26" fill="none" xmlns="http://www.w3.org/2000/svg">
<rect width="26" height="26" rx="13" fill="#0091FF" fill-opacity="0.1"/>
<path fill-rule="evenodd" clip-rule="evenodd" d="M16.551 10.0776H15.4797L15.105 11.077C15.0709 10.9785 15.0065 10.8574 14.9081 10.7136C14.8097 10.5697 14.6886 10.4334 14.5371 10.3009C14.3857 10.1685 14.2078 10.0587 13.9958 9.96404C13.7876 9.8694 13.5491 9.82397 13.2841 9.82397C12.7353 9.82397 12.2318 9.95647 11.7775 10.2252C11.3233 10.494 10.9334 10.8423 10.604 11.27C10.2747 11.6978 10.0211 12.1748 9.84314 12.7009C9.66522 13.2271 9.57437 13.7457 9.57437 14.2606C9.57437 14.5785 9.63115 14.889 9.74093 15.1956C9.8545 15.5022 10.0135 15.7785 10.2255 16.017C10.4337 16.2555 10.6911 16.4486 10.9864 16.5962C11.2816 16.7438 11.6185 16.8158 11.9895 16.8158C12.4021 16.8158 12.7618 16.7401 13.0608 16.5849C13.3599 16.4297 13.6362 16.1798 13.886 15.8278C13.905 16.0927 14.0072 16.3237 14.1851 16.5205C14.363 16.7174 14.6091 16.8158 14.9157 16.8158C15.4305 16.8158 15.934 16.7136 16.4185 16.5091C16.9031 16.3047 17.3384 16.0057 17.7207 15.6082C18.1031 15.2107 18.4097 14.7224 18.6368 14.1394C18.8677 13.5565 18.9813 12.8826 18.9813 12.118C18.9813 11.3647 18.8299 10.6757 18.5271 10.0511C18.2242 9.4265 17.8154 8.88517 17.3043 8.43091C16.7933 7.97666 16.2103 7.62461 15.5517 7.37476C14.893 7.12492 14.2116 7 13.5037 7C12.633 7 11.804 7.15142 11.0204 7.45426C10.2368 7.76088 9.55166 8.19621 8.96112 8.76404C8.37058 9.33565 7.90118 10.0246 7.54913 10.8309C7.19708 11.641 7.02295 12.5495 7.02295 13.5565C7.02295 14.1356 7.09866 14.6845 7.25008 15.2069C7.39771 15.7293 7.6097 16.2101 7.88226 16.6492C8.15481 17.0883 8.47658 17.482 8.84755 17.8341C9.22232 18.1861 9.62737 18.4852 10.0665 18.7312C10.5056 18.9773 10.975 19.1666 11.4671 19.2991C11.963 19.4315 12.4627 19.4959 12.97 19.4959C13.5491 19.4959 14.117 19.4353 14.6696 19.3142C15.2261 19.1931 15.7409 19.0076 16.2217 18.7577C16.6987 18.5079 17.1226 18.1937 17.486 17.8151C17.8494 17.4366 18.1334 16.9899 18.334 16.4751H17.2627C16.8463 17.0808 16.2974 17.5691 15.616 17.9325C14.9308 18.2997 14.1397 18.4814 13.2387 18.4814C12.5763 18.4814 11.9327 18.3603 11.3195 18.1256C10.7024 17.8909 10.1573 17.5539 9.67658 17.1224C9.19961 16.6871 8.81727 16.1685 8.52957 15.5552C8.24566 14.942 8.10181 14.2606 8.10181 13.511C8.10181 12.7161 8.24188 11.9855 8.522 11.3117C8.80213 10.6379 9.18068 10.0549 9.66522 9.56656C10.1498 9.07823 10.7176 8.6959 11.3725 8.41956C12.0274 8.14322 12.7353 8.00694 13.4923 8.00694C14.0715 8.00694 14.628 8.10915 15.1655 8.31735C15.7031 8.52555 16.1763 8.81325 16.5927 9.18044C17.0053 9.54763 17.3384 9.99054 17.5845 10.5054C17.8305 11.0202 17.9554 11.588 17.9554 12.2013C17.9554 12.7123 17.9024 13.1514 17.804 13.5224C17.7018 13.8934 17.5769 14.2114 17.4217 14.4763C17.2703 14.7375 17.0961 14.9571 16.9031 15.1237C16.71 15.2902 16.5207 15.4265 16.3353 15.5249C16.1498 15.6271 15.9794 15.6953 15.8204 15.7293C15.6652 15.7634 15.5403 15.7823 15.4457 15.7823C15.2072 15.7823 15.0898 15.6423 15.0898 15.3546C15.0898 15.2183 15.1201 15.0479 15.1769 14.8397L16.551 10.0776ZM14.4296 13.6019C14.392 13.7275 14.3501 13.8676 14.3024 14.0221C14.2078 14.3098 14.0829 14.5672 13.939 14.7905C13.7876 15.0139 13.6135 15.2032 13.4204 15.3584C13.2274 15.5136 13.0229 15.6271 12.7996 15.7066C12.5763 15.7861 12.3567 15.824 12.1334 15.824C11.8835 15.824 11.6677 15.771 11.4898 15.6688C11.3119 15.5666 11.1643 15.4303 11.0545 15.2675C10.9409 15.1047 10.8614 14.9192 10.8122 14.7148C10.763 14.5104 10.7365 14.306 10.7365 14.0978C10.7365 13.7609 10.8122 13.4013 10.9636 13.0189C11.1151 12.6366 11.3119 12.2845 11.5542 11.9628C11.7965 11.641 12.0728 11.376 12.3794 11.164C12.686 10.9521 13.0002 10.8461 13.322 10.8461C13.5151 10.8461 13.6968 10.8801 13.8633 10.9521C14.0337 11.024 14.1813 11.1262 14.31 11.2587C14.4387 11.3912 14.5371 11.5502 14.6091 11.7356C14.681 11.9249 14.7151 12.1256 14.7151 12.3489C14.7151 12.3905 14.7113 12.4473 14.7037 12.5155C14.6961 12.5836 14.681 12.6782 14.6545 12.7994C14.628 12.9205 14.5864 13.0795 14.5296 13.2726C14.4995 13.3683 14.4667 13.4781 14.4296 13.6019Z" fill="#0091FF"/>
</svg>
