<svg width="26" height="26" viewBox="0 0 26 26" fill="none" xmlns="http://www.w3.org/2000/svg">
<rect width="26" height="26" rx="13" fill="#32C5FF" fill-opacity="0.1"/>
<path fill-rule="evenodd" clip-rule="evenodd" d="M9.38553 7C9.35419 7.00313 9.3233 7.00977 9.29345 7.01978C8.35595 7.30771 7.69201 7.81689 7.33345 8.47991C6.9749 9.14293 6.92959 9.92007 7.08352 10.7096C7.39138 12.2885 8.48385 13.9857 9.86566 15.3991C11.2475 16.8125 12.9137 17.9438 14.5026 18.2733C15.297 18.438 16.0881 18.3945 16.7717 18.0365C17.4553 17.6786 17.9992 17.011 18.337 16.0568C18.4012 15.8726 18.3304 15.6685 18.166 15.5635L15.1669 13.6824L15.1603 13.6759C15.1455 13.6662 15.1301 13.6574 15.1142 13.6496C15.0701 13.621 15.021 13.6009 14.9695 13.5904C14.9652 13.5904 14.9608 13.5904 14.9564 13.5904C14.9455 13.5878 14.9345 13.5856 14.9235 13.5839C14.9213 13.5839 14.9191 13.5839 14.9169 13.5839C14.8467 13.5798 14.7766 13.5934 14.713 13.6234C14.6899 13.6345 14.6679 13.6477 14.6473 13.6628C14.6336 13.6708 14.6204 13.6796 14.6078 13.6891C14.6032 13.6956 14.5988 13.7022 14.5946 13.7089C14.5781 13.7231 14.5627 13.7384 14.5486 13.7549L13.8909 14.4193C12.6984 13.819 11.7814 12.8126 10.9575 11.453L11.5626 10.8544C11.5741 10.8441 11.5851 10.8331 11.5955 10.8216C11.6046 10.8132 11.6134 10.8044 11.6218 10.7952C11.6218 10.7931 11.6218 10.7909 11.6218 10.7887C11.6309 10.7803 11.6397 10.7716 11.6481 10.7624C11.6481 10.7602 11.6481 10.7581 11.6481 10.7559C11.6526 10.7494 11.657 10.7428 11.6612 10.7361C11.6657 10.7318 11.6701 10.7275 11.6744 10.7231C11.6792 10.7123 11.6836 10.7013 11.6875 10.6902C11.6875 10.688 11.6875 10.6858 11.6875 10.6836C11.6898 10.6793 11.692 10.675 11.6941 10.6706C11.6988 10.662 11.7032 10.6532 11.7073 10.6443C11.7099 10.6334 11.7121 10.6224 11.7138 10.6114C11.7139 10.6092 11.7139 10.607 11.7138 10.6049C11.7167 10.5918 11.7189 10.5787 11.7204 10.5654C11.7204 10.5632 11.7204 10.5611 11.7204 10.5589C11.7208 10.5479 11.7208 10.537 11.7204 10.526C11.7204 10.5238 11.7204 10.5216 11.7204 10.5195C11.7208 10.5085 11.7208 10.4975 11.7204 10.4866C11.7205 10.4822 11.7205 10.4779 11.7204 10.4735C11.7187 10.4625 11.7165 10.4515 11.7138 10.4406C11.7139 10.4385 11.7139 10.4363 11.7138 10.4341C11.7073 10.4093 11.6985 10.385 11.6875 10.3618C11.6875 10.3596 11.6875 10.3574 11.6875 10.3553C11.68 10.3371 11.6712 10.3195 11.6612 10.3026L11.6546 10.2896C11.6525 10.2874 11.6503 10.2852 11.6481 10.2831L9.77358 7.20495C9.6997 7.08205 9.56833 7.00521 9.42499 7.00105C9.41184 7.00044 9.39867 7.00044 9.38553 7.00105V7ZM9.23425 7.92737L10.7667 10.4596L10.1287 11.091C9.99523 11.2257 9.9683 11.4331 10.063 11.5974C11.0366 13.2834 12.1901 14.5951 13.8054 15.3069C13.9638 15.3773 14.1491 15.3434 14.2724 15.2215L14.9498 14.544L17.4228 16.0896C17.149 16.7059 16.792 17.0728 16.3836 17.2867C15.9106 17.5344 15.3329 17.5813 14.6736 17.4445C13.355 17.1711 11.7622 16.1348 10.4642 14.8071C9.16619 13.4794 8.16173 11.865 7.90567 10.5517C7.77763 9.895 7.83419 9.32943 8.07667 8.88107C8.28545 8.495 8.64009 8.16448 9.23425 7.92737Z" fill="#32C5FF"/>
</svg>
