<svg width="10" height="8" viewBox="0 0 10 8" fill="none" xmlns="http://www.w3.org/2000/svg">
<path d="M8.86078 0.000457454C8.57321 0.00883839 8.30019 0.128802 8.09952 0.334951C6.37184 2.06638 5.03989 3.51817 3.45698 5.13898L1.84795 3.77794C1.73774 3.67881 1.60875 3.60283 1.46863 3.55447C1.32851 3.50612 1.1801 3.48639 1.03222 3.49645C0.884329 3.50652 0.739967 3.54617 0.607687 3.61306C0.475408 3.67995 0.357903 3.77271 0.262137 3.88585C0.166372 3.99899 0.0942959 4.1302 0.0501807 4.27172C0.00606548 4.41323 -0.00919075 4.56216 0.00531646 4.70968C0.0198237 4.8572 0.0637991 5.0003 0.134636 5.13051C0.205473 5.26072 0.301729 5.37538 0.4177 5.4677L2.81683 7.49773C3.02908 7.67733 3.30114 7.77051 3.57894 7.75876C3.85673 7.74701 4.11995 7.63118 4.31628 7.4343C6.30766 5.43863 7.72254 3.84769 9.66818 1.89785C9.82709 1.74193 9.93531 1.54174 9.97873 1.32338C10.0222 1.10503 9.99875 0.878658 9.91158 0.673804C9.82441 0.468949 9.67751 0.295117 9.49006 0.175003C9.30262 0.0548892 9.08332 -0.00593997 8.86078 0.000457454Z" fill="#4B7DDE"/>
</svg>
