<svg width="20" height="24" viewBox="0 0 20 24" fill="none" xmlns="http://www.w3.org/2000/svg">
<path d="M18.0948 0H9.65117V7.45385C9.65117 7.59546 9.53638 7.71026 9.39476 7.71026H1.94092V12.3077H18.0948V0Z" fill="#32C5FF"/>
<rect x="1.94092" y="21.1899" width="16.1538" height="1.91538" fill="#32C5FF"/>
<path d="M9.13863 0.361328L5.72068 3.77928L2.30273 7.19723H9.13863V0.361328Z" fill="#32C5FF"/>
<path fill-rule="evenodd" clip-rule="evenodd" d="M0.879487 12.8203H19.1205C19.6057 12.8217 19.9986 13.2147 20 13.6998V19.7972C19.9986 20.2824 19.6057 20.6753 19.1205 20.6767H0.879487C0.394344 20.6753 0.00140826 20.2824 0 19.7972V13.6998C0.00140826 13.2147 0.394344 12.8217 0.879487 12.8203ZM5.54103 17.4357H6.2718C7.37692 17.4357 7.98718 16.869 7.98718 15.846C7.98718 14.8229 7.37692 14.2613 6.2718 14.2613H4.71282C4.57121 14.2613 4.45641 14.3761 4.45641 14.5177V18.9742C4.45641 19.1158 4.57121 19.2306 4.71282 19.2306H5.28462C5.42623 19.2306 5.54103 19.1158 5.54103 18.9742V17.4357ZM10.0769 19.2306H8.59487C8.45326 19.2306 8.33846 19.1158 8.33846 18.9742V14.5177C8.33846 14.3761 8.45326 14.2613 8.59487 14.2613H10.0769C11.6769 14.2613 12.5564 15.146 12.5564 16.7511C12.5564 18.3562 11.7 19.2306 10.0769 19.2306ZM15.9744 15.2844C16.116 15.2844 16.2308 15.1696 16.2308 15.028L16.2333 14.5177C16.2333 14.3761 16.1185 14.2613 15.9769 14.2613H13.2769C13.1353 14.2613 13.0205 14.3761 13.0205 14.5177V18.9742C13.0205 19.1158 13.1353 19.2306 13.2769 19.2306H13.8462C13.9878 19.2306 14.1026 19.1158 14.1026 18.9742V17.3357H15.6795C15.8211 17.3357 15.9359 17.2209 15.9359 17.0793V16.5665C15.9359 16.4249 15.8211 16.3101 15.6795 16.3101H14.1026V15.2844H15.9744Z" fill="#32C5FF"/>
<path d="M11.4562 16.7512C11.4562 16.223 11.3408 15.8384 11.1075 15.6051C10.8241 15.3611 10.4543 15.2418 10.0818 15.2743H9.42285V18.2179H10.0767C11.0382 18.2179 11.4511 17.7794 11.4562 16.7512Z" fill="#32C5FF"/>
<path d="M6.8923 15.8436C6.8923 15.4231 6.7282 15.2744 6.27178 15.2744H5.54102V16.4103H6.27178C6.78204 16.4103 6.88717 16.1821 6.8923 15.8436Z" fill="#32C5FF"/>
</svg>
