<svg width="20" height="10" viewBox="0 0 20 10" fill="none" xmlns="http://www.w3.org/2000/svg">
<path fill-rule="evenodd" clip-rule="evenodd" d="M10.0001 0C15.0501 0 19.0501 4.375 19.2126 4.58125L19.5876 5.0125L19.2126 5.43125C19.0501 5.625 15.0501 10 10.0001 10C4.9501 10 0.950098 5.625 0.787598 5.41875L0.412598 5L0.787598 4.58125C0.950098 4.375 4.9501 0 10.0001 0ZM6.56885 5.03125C6.56885 6.92628 8.10507 8.4625 10.0001 8.4625C10.9101 8.4625 11.7829 8.10099 12.4264 7.45751C13.0698 6.81403 13.4313 5.94127 13.4313 5.03125C13.4313 3.13622 11.8951 1.6 10.0001 1.6C8.10507 1.6 6.56885 3.13622 6.56885 5.03125Z" fill="#4B7DDE"/>
<circle cx="10.0001" cy="5.03123" r="2.49375" fill="#4B7DDE"/>
</svg>
