<svg width="20" height="20" viewBox="0 0 20 20" fill="none" xmlns="http://www.w3.org/2000/svg">
<path fill-rule="evenodd" clip-rule="evenodd" d="M9.99988 0.129883C4.54883 0.129883 0.129883 4.54883 0.129883 9.99988C0.129883 15.4509 4.54883 19.8699 9.99988 19.8699C15.4509 19.8699 19.8699 15.4509 19.8699 9.99988C19.8644 4.55112 15.4486 0.135395 9.99988 0.129883ZM7.31488 1.69488L7.13488 1.88988C7.04488 1.98988 6.95738 2.09238 6.86988 2.19738L6.81988 2.25738C6.73655 2.35905 6.65322 2.46238 6.56988 2.56738L6.52488 2.62738C6.44488 2.73238 6.36738 2.83905 6.29238 2.94738V2.96488C6.21488 3.07738 6.13988 3.18988 6.06488 3.30488L6.01988 3.37238C5.94822 3.48572 5.87822 3.59988 5.80988 3.71488L5.77488 3.77738C5.70988 3.89072 5.64572 4.00488 5.58238 4.11988L5.56488 4.14988C5.52155 4.22988 5.47933 4.31433 5.43822 4.39655C5.41766 4.43766 5.39738 4.47822 5.37738 4.51738L5.33988 4.59238C5.28155 4.71405 5.22488 4.83738 5.16988 4.96238L5.14238 5.02488C5.09072 5.14488 5.04072 5.26572 4.99238 5.38738L4.97488 5.42988V5.44988H2.53738C3.63018 3.66768 5.32494 2.33564 7.31488 1.69488ZM4.55488 6.69488H1.90738V6.68238C1.53155 7.57796 1.30927 8.53046 1.24988 9.49988H4.14988V9.50738C4.16155 9.39905 4.16738 9.29155 4.16738 9.18488V9.10488C4.18072 9.02155 4.18738 8.93822 4.18738 8.85488V8.75988C4.19572 8.66488 4.20572 8.56988 4.21738 8.47488V8.43988C4.22988 8.33238 4.24488 8.22738 4.25988 8.12238L4.27238 8.03738C4.28572 7.95072 4.29905 7.86738 4.31238 7.78738L4.32738 7.69738C4.34488 7.59238 4.36488 7.48738 4.38738 7.38238L4.3874 7.38232C4.40989 7.27984 4.43239 7.17736 4.45738 7.07488L4.47988 6.98488L4.53988 6.74988L4.55488 6.69488ZM1.27238 10.7449H1.27314C1.3412 11.6364 1.54758 12.5118 1.88488 13.3399H4.51488L4.49988 13.2824L4.44988 13.0824L4.42738 12.9874C4.40905 12.9024 4.39072 12.819 4.37238 12.7374V12.6924C4.35238 12.5957 4.33322 12.499 4.31488 12.4024L4.29988 12.3174C4.28655 12.2474 4.27405 12.1774 4.26238 12.1074L4.24738 12.0074C4.23572 11.9374 4.22488 11.8665 4.21488 11.7949V11.7099C4.20155 11.6115 4.18988 11.5132 4.17988 11.4149V11.3624C4.16488 11.2774 4.15738 11.194 4.15738 11.1124V11.0124C4.14738 10.944 4.14238 10.8749 4.14238 10.8049V10.7449H1.27314L1.27238 10.7349V10.7449ZM4.95738 14.5499H2.49988C3.60095 16.382 5.33815 17.7446 7.37988 18.3774L7.17738 18.1624L7.14988 18.1324C7.06655 18.039 6.98322 17.9432 6.89988 17.8449L6.85238 17.7899C6.76738 17.6882 6.68405 17.584 6.60238 17.4774L6.55238 17.4124C6.46488 17.3049 6.38238 17.1924 6.30238 17.0799L6.30231 17.0798C6.22483 16.9673 6.14736 16.8548 6.07238 16.7399L6.02738 16.6724C5.95405 16.559 5.88238 16.444 5.81238 16.3274L5.77238 16.2599C5.70405 16.1465 5.63822 16.0307 5.57488 15.9124L5.55988 15.8849C5.49488 15.7624 5.43238 15.6374 5.36988 15.5124L5.32988 15.4324C5.26988 15.3074 5.21155 15.1815 5.15488 15.0549L5.12738 14.9899C5.07572 14.8699 5.02572 14.7482 4.97738 14.6249L4.95738 14.5749V14.5499ZM9.38238 18.4999L9.31238 18.4499L9.21988 18.3774L9.01238 18.2099L8.93488 18.1449C8.84322 18.0665 8.75238 17.9832 8.66238 17.8949L8.62488 17.8599L8.39738 17.6424L8.31488 17.5599L8.13238 17.3699L8.05488 17.2849C7.97988 17.2032 7.90655 17.1199 7.83488 17.0349L7.80988 17.0074C7.72988 16.9124 7.65488 16.8174 7.57738 16.7174L7.50988 16.6299L7.34988 16.4124L7.27988 16.3124C7.22488 16.2324 7.17072 16.149 7.11738 16.0624L7.06738 15.9874C6.99905 15.8824 6.93322 15.7757 6.86988 15.6674L6.82238 15.5849C6.77405 15.5015 6.72655 15.4182 6.67988 15.3349L6.62488 15.2499C6.58155 15.1682 6.53988 15.0849 6.49988 14.9999L6.44988 14.8999C6.39655 14.7882 6.34405 14.6749 6.29238 14.5599H9.38238V18.4999ZM5.83738 13.3199H9.38238L9.37488 10.7324H5.37488C5.37676 10.7661 5.37969 10.7999 5.38262 10.8336C5.3875 10.8899 5.39238 10.9461 5.39238 11.0024V11.0499C5.40488 11.1874 5.41988 11.3249 5.43738 11.4599L5.45238 11.5699C5.46738 11.6765 5.48322 11.7832 5.49988 11.8899L5.52238 11.9824C5.54572 12.1157 5.57155 12.249 5.59988 12.3824L5.61738 12.4549C5.64238 12.5649 5.66822 12.6749 5.69488 12.7849L5.72488 12.8974C5.75488 13.0157 5.78738 13.1332 5.82238 13.2499L5.83738 13.3199ZM9.38238 9.50238H5.36488C5.36488 9.39738 5.37332 9.29238 5.38176 9.18738C5.38457 9.15238 5.38738 9.11738 5.38988 9.08238V8.95738C5.39988 8.85238 5.41072 8.74738 5.42238 8.64238C5.42238 8.59738 5.42238 8.55238 5.43738 8.50988C5.45238 8.38822 5.46988 8.26738 5.48988 8.14738V8.08238C5.51053 7.95391 5.53539 7.82754 5.56059 7.69941L5.5606 7.69939L5.56738 7.66488L5.59238 7.54738C5.61405 7.44405 5.63738 7.34155 5.66238 7.23988L5.69488 7.10988C5.72488 6.99655 5.75655 6.88322 5.78988 6.76988L5.80988 6.69988V6.67988H9.38238V9.50238ZM6.29238 5.45238H9.38238L9.36738 1.50488L9.23488 1.60488L9.15488 1.66738C9.06155 1.74072 8.96988 1.81655 8.87988 1.89488L8.83988 1.92988L8.61238 2.13488L8.52738 2.21738L8.34738 2.39238L8.26238 2.47988L8.06988 2.68488L8.01488 2.74488C7.93488 2.83488 7.85655 2.92655 7.77988 3.01988L7.71738 3.09738L7.54988 3.30738L7.47238 3.40988L7.32238 3.61738L7.25238 3.71488C7.18405 3.81155 7.11822 3.90988 7.05488 4.00988V4.02488C6.98738 4.12738 6.92488 4.23238 6.86238 4.33738L6.80238 4.43988L6.67488 4.66988L6.61488 4.78488C6.57155 4.86822 6.52905 4.95155 6.48738 5.03488L6.44238 5.12488C6.39072 5.23322 6.34072 5.34238 6.29238 5.45238ZM10.6149 1.35738L10.6724 1.39738L10.7774 1.47488L10.9674 1.61738L11.0699 1.69738L11.2649 1.85738L11.3499 1.92988C11.4415 2.00988 11.5315 2.09322 11.6199 2.17988C11.7065 2.26155 11.7899 2.34488 11.8699 2.42988L11.9499 2.51238L12.1249 2.69988L12.2124 2.79988L12.3724 2.98738L12.4549 3.08738L12.6249 3.29988L12.6874 3.37988C12.7624 3.47988 12.8357 3.58072 12.9074 3.68238L12.9424 3.73238C13.0024 3.81905 13.0607 3.90655 13.1174 3.99488L13.1849 4.10238L13.3174 4.31988L13.3874 4.43988L13.5099 4.65988L13.5724 4.77738L13.6159 4.86018C13.6462 4.91791 13.6761 4.97494 13.7049 5.02738L13.7449 5.10988C13.7965 5.21822 13.8474 5.32822 13.8974 5.43988H10.6174L10.6149 1.35738ZM14.3649 6.68488H10.6149L10.6174 9.49988H14.8099C14.8077 9.43988 14.8028 9.37988 14.7979 9.31988C14.7914 9.23988 14.7849 9.15988 14.7849 9.07988V8.95488C14.7749 8.84988 14.764 8.74488 14.7524 8.63988C14.7374 8.59489 14.7374 8.55239 14.7374 8.50739V8.50738C14.7224 8.38572 14.7049 8.26488 14.6849 8.14488V8.08238C14.6624 7.94238 14.6349 7.80238 14.6074 7.66488L14.5824 7.54988C14.5607 7.44655 14.5374 7.34405 14.5124 7.24238L14.4799 7.11238C14.4515 7.00072 14.4207 6.88905 14.3874 6.77738L14.3649 6.70238V6.68488ZM10.6149 10.7349H14.8249C14.8249 10.8249 14.8249 10.9149 14.8074 11.0049V11.0524C14.8074 11.1526 14.7928 11.2515 14.7781 11.351C14.7726 11.388 14.7671 11.4251 14.7624 11.4624L14.7474 11.5724C14.7324 11.679 14.7165 11.7857 14.6999 11.8924L14.6824 11.9949C14.659 12.1282 14.6332 12.2615 14.6049 12.3949L14.5874 12.4674C14.564 12.579 14.5382 12.689 14.5099 12.7974L14.4799 12.9099C14.4499 13.0282 14.4174 13.1457 14.3824 13.2624L14.3699 13.3074H10.6199L10.6149 10.7349ZM12.5999 16.7499L12.6799 16.6499C12.7399 16.5716 12.7982 16.4965 12.8549 16.4249L12.9049 16.3549C12.9782 16.2515 13.049 16.1465 13.1174 16.0399L13.1699 15.9549C13.2215 15.8699 13.2716 15.7865 13.3199 15.7049L13.3874 15.5874L13.5124 15.3624L13.5774 15.2424L13.6201 15.1575L13.6201 15.1575L13.6201 15.1574L13.6202 15.1574L13.6202 15.1574C13.6482 15.1019 13.6758 15.0471 13.7024 14.9924L13.7524 14.8924C13.8074 14.779 13.8599 14.6649 13.9099 14.5499H10.6174V18.6349L10.6599 18.6049L10.9099 18.4199L11.0074 18.3449L11.1999 18.1899L11.3024 18.1049L11.4899 17.9399L11.5799 17.8574C11.6682 17.7807 11.7515 17.7032 11.8299 17.6249L11.8549 17.5999C11.9382 17.5132 12.0215 17.424 12.1049 17.3324L12.1824 17.2474L12.3549 17.0499L12.4424 16.9474L12.5999 16.7499ZM12.9024 18.2924L12.9949 18.1899L13.0449 18.1349C13.1332 18.0365 13.2165 17.9365 13.2949 17.8349L13.3449 17.7774C13.4324 17.6724 13.5199 17.5649 13.5949 17.4574V17.4424C13.6765 17.3357 13.7599 17.2265 13.8449 17.1149L13.8824 17.0624C13.9607 16.9524 14.0365 16.8399 14.1099 16.7249L14.1524 16.6599C14.2274 16.5432 14.2999 16.4249 14.3699 16.3049L14.3874 16.2724C14.4557 16.1557 14.5224 16.0382 14.5874 15.9199L14.6149 15.8699C14.6799 15.7482 14.7432 15.6249 14.8049 15.4999L14.8399 15.4274C14.8999 15.3024 14.9582 15.1757 15.0149 15.0474L15.0349 14.9974C15.0882 14.8724 15.1407 14.7465 15.1924 14.6199L15.2099 14.5774V14.5524H17.4599C16.4191 16.2887 14.8084 17.6105 12.9024 18.2924ZM15.6474 13.3174H18.1149C18.4514 12.4925 18.658 11.6205 18.7274 10.7324H16.0249V10.7924C16.0099 10.8624 16.0099 10.9699 16.0099 11.0024V11.0999C16.0032 11.1832 15.9957 11.2665 15.9874 11.3499V11.3999C15.9774 11.4982 15.9657 11.5965 15.9524 11.6949V11.7774C15.9424 11.849 15.9315 11.9207 15.9199 11.9924L15.9049 12.0899C15.8932 12.1615 15.8807 12.2332 15.8674 12.3049L15.8524 12.3874C15.834 12.484 15.8149 12.5807 15.7949 12.6774V12.7174C15.7765 12.8007 15.7574 12.884 15.7374 12.9674L15.7149 13.0574L15.6624 13.2624L15.6474 13.3174ZM18.7499 9.49988H16.0724V9.48488C16.0724 9.37655 16.0665 9.26905 16.0549 9.16238V9.08238C16.0549 8.99905 16.0482 8.91572 16.0349 8.83238V8.73738C16.0115 8.64572 15.9999 8.55238 15.9999 8.45738V8.41988C15.9865 8.31488 15.9724 8.20905 15.9574 8.10238L15.9449 8.01488C15.9332 7.93488 15.9199 7.85155 15.9049 7.76488L15.8899 7.67488L15.8898 7.67425L15.8898 7.67422C15.8698 7.56944 15.8498 7.46467 15.8299 7.36238L15.7961 7.20988L15.7624 7.05738L15.7399 6.96738C15.7215 6.88905 15.7015 6.81072 15.6799 6.73238L15.6649 6.67738H18.1099C18.4803 7.57557 18.6967 8.52977 18.7499 9.49988ZM15.2499 5.43238V5.44988H17.4624C16.4269 3.76107 14.8506 2.47208 12.9899 1.79238L13.0574 1.86738L13.1099 1.92738C13.1932 2.02405 13.2765 2.12238 13.3599 2.22238L13.4024 2.27488C13.489 2.37488 13.5724 2.47738 13.6524 2.58238L13.6674 2.59988C13.7599 2.70738 13.8399 2.81738 13.9174 2.92738L13.9624 2.98988C14.0357 3.09822 14.1082 3.20738 14.1799 3.31738L14.2224 3.38488C14.2949 3.49988 14.3674 3.61488 14.4349 3.73238L14.4499 3.75988C14.5165 3.87322 14.5807 3.98822 14.6424 4.10488L14.6724 4.16238C14.7357 4.28072 14.7965 4.40072 14.8549 4.52238L14.8899 4.59738C14.9482 4.71905 15.0049 4.84238 15.0599 4.96738L15.0824 5.02238C15.1357 5.14405 15.1865 5.26738 15.2349 5.39238L15.2499 5.43238Z" fill="#32A4FD"/>
</svg>
