<svg width="26" height="26" viewBox="0 0 26 26" fill="none" xmlns="http://www.w3.org/2000/svg">
<rect width="26" height="26" rx="13" fill="#0091FF" fill-opacity="0.1"/>
<path fill-rule="evenodd" clip-rule="evenodd" d="M16.5508 10.0776H15.4795L15.1047 11.077C15.0707 10.9785 15.0063 10.8574 14.9079 10.7136C14.8095 10.5697 14.6883 10.4334 14.5369 10.3009C14.3855 10.1685 14.2076 10.0587 13.9956 9.96404C13.7874 9.8694 13.5489 9.82397 13.2839 9.82397C12.735 9.82397 12.2315 9.95647 11.7773 10.2252C11.323 10.494 10.9331 10.8423 10.6038 11.27C10.2744 11.6978 10.0208 12.1748 9.84289 12.7009C9.66498 13.2271 9.57412 13.7457 9.57412 14.2606C9.57412 14.5785 9.63091 14.889 9.74069 15.1956C9.85425 15.5022 10.0132 15.7785 10.2252 16.017C10.4334 16.2555 10.6908 16.4486 10.9861 16.5962C11.2814 16.7438 11.6183 16.8158 11.9893 16.8158C12.4019 16.8158 12.7615 16.7401 13.0606 16.5849C13.3596 16.4297 13.636 16.1798 13.8858 15.8278C13.9047 16.0927 14.0069 16.3237 14.1849 16.5205C14.3628 16.7174 14.6088 16.8158 14.9154 16.8158C15.4303 16.8158 15.9337 16.7136 16.4183 16.5091C16.9028 16.3047 17.3382 16.0057 17.7205 15.6082C18.1028 15.2107 18.4095 14.7224 18.6366 14.1394C18.8675 13.5565 18.9811 12.8826 18.9811 12.118C18.9811 11.3647 18.8296 10.6757 18.5268 10.0511C18.224 9.4265 17.8151 8.88517 17.3041 8.43091C16.7931 7.97666 16.2101 7.62461 15.5514 7.37476C14.8927 7.12492 14.2113 7 13.5035 7C12.6328 7 11.8038 7.15142 11.0202 7.45426C10.2366 7.76088 9.55141 8.19621 8.96088 8.76404C8.37034 9.33565 7.90094 10.0246 7.54889 10.8309C7.19684 11.641 7.02271 12.5495 7.02271 13.5565C7.02271 14.1356 7.09841 14.6845 7.24983 15.2069C7.39747 15.7293 7.60946 16.2101 7.88201 16.6492C8.15457 17.0883 8.47633 17.482 8.84731 17.8341C9.22207 18.1861 9.62712 18.4852 10.0662 18.7312C10.5054 18.9773 10.9748 19.1666 11.4669 19.2991C11.9628 19.4315 12.4625 19.4959 12.9697 19.4959C13.5489 19.4959 14.1167 19.4353 14.6694 19.3142C15.2259 19.1931 15.7407 19.0076 16.2214 18.7577C16.6984 18.5079 17.1224 18.1937 17.4858 17.8151C17.8492 17.4366 18.1331 16.9899 18.3337 16.4751H17.2625C16.846 17.0808 16.2972 17.5691 15.6158 17.9325C14.9306 18.2997 14.1394 18.4814 13.2385 18.4814C12.576 18.4814 11.9325 18.3603 11.3192 18.1256C10.7022 17.8909 10.1571 17.5539 9.67633 17.1224C9.19936 16.6871 8.81703 16.1685 8.52933 15.5552C8.24542 14.942 8.10157 14.2606 8.10157 13.511C8.10157 12.7161 8.24163 11.9855 8.52176 11.3117C8.80188 10.6379 9.18043 10.0549 9.66498 9.56656C10.1495 9.07823 10.7173 8.6959 11.3722 8.41956C12.0271 8.14322 12.735 8.00694 13.4921 8.00694C14.0713 8.00694 14.6278 8.10915 15.1653 8.31735C15.7028 8.52555 16.176 8.81325 16.5924 9.18044C17.005 9.54763 17.3382 9.99054 17.5842 10.5054C17.8303 11.0202 17.9552 11.588 17.9552 12.2013C17.9552 12.7123 17.9022 13.1514 17.8038 13.5224C17.7016 13.8934 17.5766 14.2114 17.4214 14.4763C17.27 14.7375 17.0959 14.9571 16.9028 15.1237C16.7098 15.2902 16.5205 15.4265 16.335 15.5249C16.1495 15.6271 15.9792 15.6953 15.8202 15.7293C15.665 15.7634 15.5401 15.7823 15.4454 15.7823C15.2069 15.7823 15.0896 15.6423 15.0896 15.3546C15.0896 15.2183 15.1199 15.0479 15.1766 14.8397L16.5508 10.0776ZM14.4294 13.6019C14.3918 13.7275 14.3499 13.8676 14.3022 14.0221C14.2076 14.3098 14.0826 14.5672 13.9388 14.7905C13.7874 15.0139 13.6132 15.2032 13.4202 15.3584C13.2271 15.5136 13.0227 15.6271 12.7994 15.7066C12.576 15.7861 12.3565 15.824 12.1331 15.824C11.8833 15.824 11.6675 15.771 11.4896 15.6688C11.3117 15.5666 11.164 15.4303 11.0543 15.2675C10.9407 15.1047 10.8612 14.9192 10.812 14.7148C10.7628 14.5104 10.7363 14.306 10.7363 14.0978C10.7363 13.7609 10.812 13.4013 10.9634 13.0189C11.1148 12.6366 11.3117 12.2845 11.5539 11.9628C11.7962 11.641 12.0725 11.376 12.3792 11.164C12.6858 10.9521 13 10.8461 13.3218 10.8461C13.5148 10.8461 13.6965 10.8801 13.8631 10.9521C14.0334 11.024 14.1811 11.1262 14.3098 11.2587C14.4385 11.3912 14.5369 11.5502 14.6088 11.7356C14.6807 11.9249 14.7148 12.1256 14.7148 12.3489C14.7148 12.3905 14.711 12.4473 14.7035 12.5155C14.6959 12.5836 14.6807 12.6782 14.6543 12.7994C14.6278 12.9205 14.5861 13.0795 14.5293 13.2726C14.4993 13.3683 14.4664 13.4781 14.4294 13.6019Z" fill="#0091FF"/>
</svg>
