<svg width="20" height="20" viewBox="0 0 20 20" fill="none" xmlns="http://www.w3.org/2000/svg">
<path d="M3.2918 17.8824L7.45919 13.715L6.28516 12.541L2.11748 16.7081C1.57652 17.2491 1.12049 17.8684 0.764639 18.5454L0 19.9996L1.45422 19.235C2.13154 18.8794 2.75084 18.4231 3.2918 17.8824Z" fill="#4BB8DE"/>
<path d="M7.41699 7.56684L13.6014 2.53613L17.4637 6.3985L12.433 12.5829L7.41699 7.56684Z" fill="#4BB8DE"/>
<path d="M14.2485 0.426502L14.3872 0.287749C14.7709 -0.0959162 15.3926 -0.0959162 15.7762 0.287749L19.7125 4.22368C20.0961 4.60734 20.0961 5.22904 19.7125 5.61271L19.5737 5.75146C19.1901 6.13512 18.5684 6.13512 18.1847 5.75146L14.2485 1.81523C13.8651 1.43186 13.8651 0.809868 14.2485 0.426502Z" fill="#4BB8DE"/>
<path d="M4.34485 7.59492L4.41452 7.52525C4.81733 7.12244 5.47012 7.12244 5.87263 7.52525L12.4742 14.1268C12.877 14.5296 12.877 15.1824 12.4742 15.5849L12.4045 15.6546C12.0017 16.0574 11.3489 16.0574 10.9464 15.6546L4.34485 9.05303C3.94234 8.65023 3.94234 7.99743 4.34485 7.59492Z" fill="#4BB8DE"/>
</svg>
