<svg width="11" height="14" viewBox="0 0 11 14" fill="none" xmlns="http://www.w3.org/2000/svg">
<path fill-rule="evenodd" clip-rule="evenodd" d="M3.62638 3.65527C3.62638 1.63259 5.27342 0 7.2961 0C9.31878 0 10.9514 1.64704 10.9369 3.68417C10.9369 5.70685 9.28989 7.33945 7.26721 7.33945C6.357 7.33945 5.53348 7.00715 4.89778 6.45813L4.88333 6.47258C4.88333 6.55927 4.83999 6.6604 4.76775 6.73264L2.58614 8.92869L4.31987 10.6769C4.4788 10.8358 4.4788 11.0959 4.31987 11.2548C4.16094 11.4137 3.90089 11.4137 3.74196 11.2548L2.00823 9.5066L0.967998 10.5613L2.68728 12.3095C2.8462 12.4684 2.8462 12.7284 2.68728 12.8874C2.52835 13.0463 2.26829 13.0463 2.10937 12.8874L0.144477 10.8936C0.144477 10.8936 0.0722386 10.8358 0.0577909 10.8069C0.0577909 10.8034 0.054455 10.7958 0.0493862 10.7842C0.0333575 10.7475 0 10.6711 0 10.5613V10.5035C0.0144477 10.4168 0.0433432 10.359 0.101134 10.2723L4.20429 6.15473C4.26208 6.08249 4.33432 6.0536 4.421 6.03915L4.46435 5.99581C3.94423 5.36011 3.62638 4.53659 3.62638 3.65527ZM4.4499 3.65527C4.4499 5.23008 5.7213 6.50148 7.2961 6.50148C8.85646 6.50148 10.1279 5.23008 10.1423 3.65527C10.1423 2.08047 8.8709 0.809073 7.2961 0.809073C5.7213 0.809073 4.4499 2.08047 4.4499 3.65527Z" fill="#4A4A4A"/>
</svg>
