<svg width="26" height="26" viewBox="0 0 26 26" fill="none" xmlns="http://www.w3.org/2000/svg">
<rect width="26" height="26" rx="13" fill="#6DD400" fill-opacity="0.1"/>
<path fill-rule="evenodd" clip-rule="evenodd" d="M10.8647 9.45557C10.8444 9.45759 10.8244 9.46189 10.805 9.46838C10.1976 9.65493 9.76745 9.98483 9.53514 10.4144C9.30283 10.844 9.27347 11.3475 9.3732 11.859C9.57267 12.882 10.2805 13.9816 11.1758 14.8974C12.071 15.8131 13.1506 16.5461 14.18 16.7596C14.6947 16.8663 15.2073 16.8381 15.6502 16.6062C16.0931 16.3742 16.4455 15.9417 16.6644 15.3235C16.706 15.2042 16.6601 15.0719 16.5536 15.0039L14.6104 13.7851L14.6062 13.7809C14.5966 13.7746 14.5866 13.7689 14.5763 13.7639C14.5477 13.7453 14.5159 13.7323 14.4826 13.7255C14.4797 13.7255 14.4769 13.7255 14.4741 13.7255C14.467 13.7238 14.4599 13.7224 14.4528 13.7213C14.4513 13.7213 14.4499 13.7213 14.4485 13.7213C14.403 13.7187 14.3576 13.7274 14.3164 13.7469C14.3014 13.7541 14.2872 13.7626 14.2738 13.7724C14.2649 13.7776 14.2564 13.7833 14.2482 13.7895C14.2452 13.7937 14.2424 13.7979 14.2397 13.8023C14.229 13.8115 14.219 13.8214 14.2099 13.8321L13.7837 14.2625C13.0111 13.8736 12.417 13.2216 11.8831 12.3407L12.2752 11.9529C12.2827 11.9462 12.2898 11.939 12.2965 11.9316C12.3024 11.9261 12.3081 11.9204 12.3135 11.9145C12.3136 11.9131 12.3136 11.9117 12.3135 11.9103C12.3195 11.9049 12.3252 11.8992 12.3306 11.8932C12.3306 11.8918 12.3306 11.8904 12.3306 11.889C12.3336 11.8848 12.3364 11.8806 12.3391 11.8762C12.342 11.8734 12.3449 11.8706 12.3476 11.8677C12.3508 11.8608 12.3536 11.8537 12.3562 11.8464C12.3562 11.845 12.3562 11.8436 12.3562 11.8422C12.3576 11.8394 12.359 11.8366 12.3604 11.8337C12.3635 11.8282 12.3663 11.8225 12.3689 11.8167C12.3706 11.8097 12.3721 11.8026 12.3732 11.7954C12.3732 11.794 12.3732 11.7926 12.3732 11.7912C12.375 11.7827 12.3765 11.7742 12.3775 11.7656C12.3775 11.7642 12.3775 11.7628 12.3775 11.7614C12.3777 11.7543 12.3777 11.7472 12.3775 11.7401C12.3775 11.7387 12.3775 11.7372 12.3775 11.7358C12.3777 11.7287 12.3777 11.7216 12.3775 11.7145C12.3775 11.7117 12.3775 11.7089 12.3775 11.7061C12.3763 11.6989 12.3749 11.6918 12.3732 11.6848C12.3732 11.6834 12.3732 11.682 12.3732 11.6805C12.369 11.6644 12.3633 11.6487 12.3562 11.6337C12.3562 11.6323 12.3562 11.6309 12.3562 11.6294C12.3513 11.6177 12.3456 11.6063 12.3391 11.5954L12.3349 11.5869C12.3334 11.5855 12.332 11.5841 12.3306 11.5827L11.1161 9.58836C11.0682 9.50872 10.9831 9.45894 10.8903 9.45625C10.8817 9.45585 10.8732 9.45585 10.8647 9.45625V9.45557ZM10.7667 10.0564L11.7596 11.697L11.3462 12.1061C11.2597 12.1934 11.2423 12.3278 11.3036 12.4343C11.9344 13.5266 12.6818 14.3764 13.7283 14.8377C13.831 14.8833 13.951 14.8613 14.0309 14.7823L14.4698 14.3433L16.0721 15.3448C15.8946 15.7441 15.6634 15.9818 15.3988 16.1203C15.0923 16.2808 14.718 16.3112 14.2908 16.2226C13.4365 16.0455 12.4045 15.374 11.5635 14.5138C10.7226 13.6536 10.0718 12.6076 9.90588 11.7567C9.82292 11.3312 9.85957 10.9648 10.0167 10.6743C10.1519 10.4242 10.3817 10.21 10.7667 10.0564Z" fill="#6DD400"/>
<path fill-rule="evenodd" clip-rule="evenodd" d="M13 7.13623C9.6903 7.13623 7 9.82514 7 13.1362C7 14.3394 7.35654 15.464 7.98519 16.4287L7.31419 18.6679C7.28485 18.7659 7.31281 18.8721 7.38662 18.9429C7.46044 19.0138 7.56768 19.0373 7.66439 19.004L9.85609 18.2476C10.7687 18.8108 11.8479 19.1362 13 19.1362C16.3109 19.1362 18.9999 16.4471 18.9999 13.1362C18.9999 9.82523 16.3109 7.13623 13 7.13623ZM13 7.6816C16.0163 7.6816 18.4545 10.1199 18.4545 13.1362C18.4545 16.1525 16.0163 18.5908 13 18.5908C11.9065 18.5908 10.8896 18.2701 10.0393 17.7184C9.96884 17.6726 9.88127 17.6619 9.80189 17.6893L7.98936 18.3149L8.54436 16.4626C8.56795 16.3839 8.55477 16.2987 8.50848 16.2308C7.8923 15.3267 7.54537 14.2737 7.54537 13.1362C7.54537 10.1199 9.98507 7.6816 13 7.6816Z" fill="#6DD400"/>
<path d="M7.98519 16.4287L8.17677 16.4861L8.2034 16.3973L8.15275 16.3195L7.98519 16.4287ZM7.31419 18.6679L7.12261 18.6105L7.1226 18.6105L7.31419 18.6679ZM7.66439 19.004L7.72961 19.193L7.72964 19.193L7.66439 19.004ZM9.85609 18.2476L9.96114 18.0774L9.88046 18.0276L9.79085 18.0585L9.85609 18.2476ZM10.0393 17.7184L10.1482 17.5506L10.1481 17.5506L10.0393 17.7184ZM9.80189 17.6893L9.73665 17.5003L9.73664 17.5003L9.80189 17.6893ZM7.98936 18.3149L7.79778 18.2575L7.68579 18.6312L8.05461 18.5039L7.98936 18.3149ZM8.54436 16.4626L8.73594 16.5201L8.73595 16.5201L8.54436 16.4626ZM8.50848 16.2308L8.67375 16.1182L8.67375 16.1182L8.50848 16.2308ZM13 6.93623C9.57987 6.93623 6.8 9.71466 6.8 13.1362H7.2C7.2 9.93563 9.80073 7.33623 13 7.33623V6.93623ZM6.8 13.1362C6.8 14.3798 7.16875 15.5421 7.81762 16.5379L8.15275 16.3195C7.54433 15.3858 7.2 14.2989 7.2 13.1362H6.8ZM7.7936 16.3713L7.12261 18.6105L7.50577 18.7253L8.17677 16.4861L7.7936 16.3713ZM7.1226 18.6105C7.07173 18.7804 7.12021 18.9645 7.24815 19.0872L7.5251 18.7986C7.50542 18.7797 7.49796 18.7514 7.50579 18.7253L7.1226 18.6105ZM7.24815 19.0872C7.37609 19.21 7.56198 19.2509 7.72961 19.193L7.59917 18.8149C7.57338 18.8238 7.54479 18.8175 7.5251 18.7986L7.24815 19.0872ZM7.72964 19.193L9.92134 18.4366L9.79085 18.0585L7.59914 18.8149L7.72964 19.193ZM9.75105 18.4178C10.6944 19 11.8099 19.3362 13 19.3362V18.9362C11.8859 18.9362 10.843 18.6216 9.96114 18.0774L9.75105 18.4178ZM13 19.3362C16.4214 19.3362 19.1999 16.5576 19.1999 13.1362H18.7999C18.7999 16.3367 16.2005 18.9362 13 18.9362V19.3362ZM19.1999 13.1362C19.1999 9.71477 16.4214 6.93623 13 6.93623V7.33623C16.2005 7.33623 18.7999 9.93568 18.7999 13.1362H19.1999ZM13 7.8816C15.9058 7.8816 18.2545 10.2303 18.2545 13.1362H18.6545C18.6545 10.0094 16.1267 7.4816 13 7.4816V7.8816ZM18.2545 13.1362C18.2545 16.042 15.9058 18.3908 13 18.3908V18.7908C16.1267 18.7908 18.6545 16.263 18.6545 13.1362H18.2545ZM13 18.3908C11.9462 18.3908 10.9669 18.0818 10.1482 17.5506L9.93043 17.8861C10.8123 18.4583 11.8669 18.7908 13 18.7908V18.3908ZM10.1481 17.5506C10.026 17.4713 9.87425 17.4528 9.73665 17.5003L9.86713 17.8784C9.8883 17.8711 9.91165 17.8739 9.93043 17.8861L10.1481 17.5506ZM9.73664 17.5003L7.92411 18.1258L8.05461 18.5039L9.86714 17.8784L9.73664 17.5003ZM8.18094 18.3723L8.73594 16.5201L8.35278 16.4052L7.79778 18.2575L8.18094 18.3723ZM8.73595 16.5201C8.77684 16.3836 8.75399 16.2359 8.67375 16.1182L8.34321 16.3434C8.35555 16.3615 8.35907 16.3842 8.35278 16.4052L8.73595 16.5201ZM8.67375 16.1182C8.07912 15.2457 7.74537 14.2316 7.74537 13.1362H7.34537C7.34537 14.3157 7.70549 15.4077 8.34321 16.3434L8.67375 16.1182ZM7.74537 13.1362C7.74537 10.2304 10.0955 7.8816 13 7.8816V7.4816C9.87464 7.4816 7.34537 10.0095 7.34537 13.1362H7.74537Z" fill="#6DD400"/>
</svg>
