<svg width="20" height="21" viewBox="0 0 20 21" fill="none" xmlns="http://www.w3.org/2000/svg">
<path d="M18.4142 8.39727C18.0566 8.39532 17.7087 8.51275 17.4254 8.73095C17.1421 8.94914 16.9398 9.25563 16.8504 9.60184H15.35C15.2642 8.47783 14.8197 7.41109 14.082 6.55871L15.1386 5.50207C15.3828 5.64263 15.66 5.71558 15.9417 5.7134C16.1565 5.71648 16.3698 5.67698 16.5693 5.59719C16.7688 5.51739 16.9505 5.39887 17.104 5.24848C17.3998 4.93802 17.5649 4.5256 17.5649 4.09674C17.5649 3.66788 17.3998 3.25547 17.104 2.94501C16.7935 2.64915 16.3811 2.48411 15.9522 2.48411C15.5234 2.48411 15.111 2.64915 14.8005 2.94501C14.5477 3.19898 14.3859 3.52927 14.34 3.88463C14.2942 4.23999 14.3669 4.60055 14.5469 4.91036L13.4903 5.967C12.6313 5.24323 11.567 4.80714 10.4471 4.72016V3.1986C10.8282 3.0961 11.1591 2.85859 11.3781 2.53029C11.5971 2.202 11.6894 1.8053 11.6377 1.41406C11.586 1.02282 11.3939 0.663693 11.0971 0.403557C10.8003 0.14342 10.4191 0 10.0245 0C9.62985 0 9.24865 0.14342 8.95188 0.403557C8.65511 0.663693 8.46299 1.02282 8.41129 1.41406C8.35959 1.8053 8.45184 2.202 8.67086 2.53029C8.88987 2.85859 9.22074 3.0961 9.60184 3.1986V4.72016C8.48199 4.80714 7.41765 5.24323 6.55871 5.967L5.50207 4.91036C5.68208 4.60055 5.7548 4.23999 5.70895 3.88463C5.6631 3.52927 5.50123 3.19898 5.24848 2.94501C4.93802 2.64915 4.5256 2.48411 4.09674 2.48411C3.66788 2.48411 3.25547 2.64915 2.94501 2.94501C2.64915 3.25547 2.48411 3.66788 2.48411 4.09674C2.48411 4.5256 2.64915 4.93802 2.94501 5.24848C3.09846 5.39887 3.28017 5.51739 3.47966 5.59719C3.67915 5.67698 3.89247 5.71648 4.10731 5.7134C4.38902 5.71558 4.66621 5.64263 4.91036 5.50207L5.967 6.55871C5.22929 7.41109 4.78481 8.47783 4.69903 9.60184H3.1986C3.0961 9.22074 2.85859 8.88988 2.53029 8.67086C2.202 8.45184 1.8053 8.35959 1.41406 8.41129C1.02282 8.46299 0.663693 8.65511 0.403557 8.95188C0.14342 9.24865 0 9.62985 0 10.0245C0 10.4191 0.14342 10.8003 0.403557 11.0971C0.663693 11.3939 1.02282 11.586 1.41406 11.6377C1.8053 11.6894 2.202 11.5971 2.53029 11.3781C2.85859 11.1591 3.0961 10.8282 3.1986 10.4471H4.6779C4.76365 11.5775 5.20785 12.651 5.94586 13.5114L4.91036 14.5469C4.60055 14.3669 4.23999 14.2942 3.88463 14.34C3.52927 14.3859 3.19898 14.5477 2.94501 14.8005C2.64915 15.111 2.48411 15.5234 2.48411 15.9522C2.48411 16.3811 2.64915 16.7935 2.94501 17.104C3.26097 17.3984 3.67548 17.5642 4.10731 17.5689C4.53223 17.561 4.93899 17.3952 5.24848 17.104C5.50123 16.85 5.6631 16.5197 5.70895 16.1644C5.7548 15.809 5.68208 15.4484 5.50207 15.1386L6.53758 14.1031C7.39607 14.8475 8.46939 15.2991 9.60184 15.3922V16.8504C9.22074 16.9529 8.88987 17.1904 8.67086 17.5187C8.45184 17.847 8.35959 18.2437 8.41129 18.6349C8.46299 19.0262 8.65511 19.3853 8.95188 19.6454C9.24865 19.9056 9.62985 20.049 10.0245 20.049C10.4191 20.049 10.8003 19.9056 11.0971 19.6454C11.3939 19.3853 11.586 19.0262 11.6377 18.6349C11.6894 18.2437 11.5971 17.847 11.3781 17.5187C11.1591 17.1904 10.8282 16.9529 10.4471 16.8504V15.3922C11.5796 15.2991 12.6529 14.8475 13.5114 14.1031L14.5469 15.1386C14.3669 15.4484 14.2942 15.809 14.34 16.1644C14.3859 16.5197 14.5477 16.85 14.8005 17.104C15.111 17.3998 15.5234 17.5649 15.9522 17.5649C16.3811 17.5649 16.7935 17.3998 17.104 17.104C17.3998 16.7935 17.5649 16.3811 17.5649 15.9522C17.5649 15.5234 17.3998 15.111 17.104 14.8005C16.85 14.5477 16.5197 14.3859 16.1644 14.34C15.809 14.2942 15.4484 14.3669 15.1386 14.5469L14.1031 13.5114C14.8411 12.651 15.2853 11.5775 15.3711 10.4471H16.8504C16.9327 10.7332 17.0928 10.9908 17.313 11.1911C17.5331 11.3915 17.8046 11.5267 18.0972 11.5817C18.3897 11.6367 18.6918 11.6093 18.9697 11.5026C19.2475 11.3959 19.4903 11.214 19.6708 10.9774C19.8514 10.7407 19.9626 10.4585 19.9921 10.1623C20.0216 9.86615 19.9682 9.56758 19.8378 9.29997C19.7075 9.03236 19.5054 8.80623 19.254 8.64683C19.0026 8.48743 18.7118 8.40103 18.4142 8.39727ZM1.63477 10.8064C1.48013 10.8064 1.32895 10.7605 1.20037 10.6746C1.07178 10.5887 0.971562 10.4666 0.912381 10.3237C0.8532 10.1808 0.837715 10.0236 0.867885 9.87195C0.898056 9.72027 0.972526 9.58095 1.08188 9.4716C1.19123 9.36224 1.33055 9.28777 1.48223 9.2576C1.63391 9.22743 1.79112 9.24292 1.934 9.3021C2.07688 9.36128 2.19899 9.4615 2.28491 9.59008C2.37083 9.71867 2.41669 9.86984 2.41669 10.0245C2.41669 10.2319 2.33431 10.4308 2.18767 10.5774C2.04103 10.724 1.84215 10.8064 1.63477 10.8064ZM15.4134 3.55786C15.5521 3.41398 15.7419 3.33048 15.9417 3.3254C16.0442 3.32512 16.1457 3.34557 16.2401 3.38552C16.3346 3.42547 16.4199 3.48409 16.4911 3.55786C16.5647 3.62702 16.6233 3.71051 16.6634 3.80319C16.7035 3.89587 16.7241 3.99577 16.7241 4.09674C16.7241 4.19772 16.7035 4.29762 16.6634 4.3903C16.6233 4.48298 16.5647 4.56647 16.4911 4.63563C16.422 4.7092 16.3385 4.76782 16.2458 4.80789C16.1531 4.84797 16.0532 4.86864 15.9522 4.86864C15.8513 4.86864 15.7514 4.84797 15.6587 4.80789C15.566 4.76782 15.4825 4.7092 15.4134 4.63563C15.3398 4.56647 15.2812 4.48298 15.2411 4.3903C15.201 4.29762 15.1803 4.19772 15.1803 4.09674C15.1803 3.99577 15.201 3.89587 15.2411 3.80319C15.2812 3.71051 15.3398 3.62702 15.4134 3.55786ZM9.24258 1.63477C9.24258 1.48013 9.28844 1.32895 9.37435 1.20037C9.46027 1.07178 9.58239 0.971562 9.72527 0.912381C9.86814 0.8532 10.0254 0.837715 10.177 0.867885C10.3287 0.898056 10.468 0.972526 10.5774 1.08188C10.6867 1.19123 10.7612 1.33055 10.7914 1.48223C10.8216 1.63391 10.8061 1.79112 10.7469 1.934C10.6877 2.07688 10.5875 2.19899 10.4589 2.28491C10.3303 2.37083 10.1791 2.41669 10.0245 2.41669C9.81711 2.41669 9.61823 2.33431 9.4716 2.18767C9.32496 2.04103 9.24258 1.84215 9.24258 1.63477ZM3.55786 4.63563C3.48429 4.56647 3.42567 4.48298 3.38559 4.3903C3.34552 4.29762 3.32485 4.19772 3.32485 4.09674C3.32485 3.99577 3.34552 3.89587 3.38559 3.80319C3.42567 3.71051 3.48429 3.62702 3.55786 3.55786C3.62905 3.48409 3.71443 3.42547 3.80885 3.38552C3.90327 3.34557 4.00479 3.32512 4.10731 3.3254C4.30712 3.33048 4.4969 3.41398 4.63563 3.55786C4.7092 3.62702 4.76782 3.71051 4.80789 3.80319C4.84797 3.89587 4.86864 3.99577 4.86864 4.09674C4.86864 4.19772 4.84797 4.29762 4.80789 4.3903C4.76782 4.48298 4.7092 4.56647 4.63563 4.63563C4.56647 4.7092 4.48298 4.76782 4.3903 4.80789C4.29762 4.84797 4.19772 4.86864 4.09674 4.86864C3.99577 4.86864 3.89587 4.84797 3.80319 4.80789C3.71051 4.76782 3.62702 4.7092 3.55786 4.63563ZM9.05238 11.5883C8.84443 11.297 8.68064 10.9765 8.56633 10.6373V10.5105L8.37613 10.3626L8.24934 9.72863L8.31274 9.6441C8.35777 9.62029 8.39459 9.58347 8.4184 9.53844L8.52406 9.43277V8.4184C8.5149 8.17194 8.59777 7.93089 8.75652 7.74215C9.01012 7.46742 9.45391 7.34063 10.0668 7.34063C10.6796 7.34063 11.1234 7.46742 11.377 7.74215C11.4605 7.83259 11.5243 7.93941 11.5643 8.05583C11.6044 8.17225 11.6197 8.29572 11.6095 8.4184V9.43277L11.7151 9.53844L11.8208 9.6441L11.8842 9.72863L11.7785 10.3415V10.3837L11.6306 10.4471L11.4827 10.5317L11.4193 10.7007C11.3122 10.9717 11.1701 11.2275 10.9966 11.4615C10.9613 11.4986 10.9327 11.5415 10.9121 11.5883L10.8064 11.694V12.0744C10.8038 12.2241 10.8443 12.3713 10.923 12.4987C11.0016 12.6261 11.1152 12.7282 11.2502 12.7929L12.7295 13.6593C11.9547 14.2561 11.0024 14.576 10.0245 14.568C9.04788 14.5681 8.09802 14.249 7.31949 13.6593L8.73539 12.7718C8.85894 12.7006 8.96248 12.5993 9.03637 12.4774C9.11027 12.3555 9.15213 12.2168 9.15805 12.0744V11.694L9.05238 11.5883ZM4.63563 16.4911C4.56647 16.5647 4.48298 16.6233 4.3903 16.6634C4.29762 16.7035 4.19772 16.7241 4.09674 16.7241C3.99577 16.7241 3.89587 16.7035 3.80319 16.6634C3.71051 16.6233 3.62702 16.5647 3.55786 16.4911C3.48429 16.422 3.42567 16.3385 3.38559 16.2458C3.34552 16.1531 3.32485 16.0532 3.32485 15.9522C3.32485 15.8513 3.34552 15.7514 3.38559 15.6587C3.42567 15.566 3.48429 15.4825 3.55786 15.4134C3.62655 15.3364 3.71146 15.2756 3.80647 15.2354C3.90148 15.1952 4.00423 15.1766 4.10731 15.1809C4.20707 15.1783 4.30617 15.1977 4.39752 15.2379C4.48886 15.2781 4.57018 15.338 4.63563 15.4134C4.7092 15.4825 4.76782 15.566 4.80789 15.6587C4.84797 15.7514 4.86864 15.8513 4.86864 15.9522C4.86864 16.0532 4.84797 16.1531 4.80789 16.2458C4.76782 16.3385 4.7092 16.422 4.63563 16.4911ZM10.8064 18.4142C10.8064 18.5689 10.7605 18.72 10.6746 18.8486C10.5887 18.9772 10.4666 19.0774 10.3237 19.1366C10.1808 19.1958 10.0236 19.2113 9.87195 19.1811C9.72027 19.1509 9.58095 19.0765 9.4716 18.9671C9.36224 18.8578 9.28777 18.7184 9.2576 18.5668C9.22743 18.4151 9.24292 18.2579 9.3021 18.115C9.36128 17.9721 9.4615 17.85 9.59008 17.7641C9.71867 17.6782 9.86984 17.6323 10.0245 17.6323C10.2319 17.6323 10.4307 17.7147 10.5774 17.8613C10.724 18.0079 10.8064 18.2068 10.8064 18.4142ZM16.4911 15.4134C16.5973 15.5199 16.6695 15.6554 16.6986 15.8029C16.7277 15.9504 16.7125 16.1033 16.6549 16.2421C16.5972 16.381 16.4997 16.4996 16.3746 16.5831C16.2496 16.6666 16.1026 16.7112 15.9522 16.7112C15.8019 16.7112 15.6549 16.6666 15.5298 16.5831C15.4048 16.4996 15.3073 16.381 15.2496 16.2421C15.192 16.1033 15.1767 15.9504 15.2059 15.8029C15.235 15.6554 15.3072 15.5199 15.4134 15.4134C15.4788 15.338 15.5601 15.2781 15.6515 15.2379C15.7428 15.1977 15.8419 15.1783 15.9417 15.1809C16.0447 15.1766 16.1475 15.1952 16.2425 15.2354C16.3375 15.2756 16.4224 15.3364 16.4911 15.4134ZM13.3635 13.0676L11.6306 12.0532V12.011C11.6306 11.9898 11.6517 11.9898 11.6517 11.9687C11.8391 11.7136 11.9952 11.4369 12.1166 11.1445C12.2531 11.0891 12.3712 10.9961 12.4572 10.8765C12.5432 10.7569 12.5936 10.6153 12.6027 10.4683L12.7295 9.74977V9.66523C12.7067 9.4384 12.6015 9.22782 12.4336 9.07352V8.4818C12.4521 8.24303 12.4203 8.00305 12.3402 7.77736C12.2601 7.55166 12.1335 7.34529 11.9687 7.17157C11.5461 6.72778 10.9121 6.49532 10.0456 6.49532C9.17918 6.49532 8.5452 6.72778 8.12254 7.17157C7.80004 7.52943 7.63282 8.0007 7.65762 8.4818V9.07352C7.4898 9.22782 7.38451 9.4384 7.36176 9.66523L7.50969 10.4683C7.51125 10.5769 7.53895 10.6835 7.59045 10.7792C7.64195 10.8748 7.71573 10.9566 7.80555 11.0177C7.92508 11.3653 8.09604 11.693 8.31274 11.9898V12.0321L6.66438 13.0465C5.92103 12.2248 5.51371 11.1536 5.52321 10.0456C5.52374 9.3151 5.70205 8.59569 6.04277 7.94949C6.38348 7.30328 6.87636 6.74972 7.47883 6.33658C8.08131 5.92344 8.77528 5.66314 9.50085 5.57816C10.2264 5.49317 10.9618 5.58606 11.6434 5.84879C12.325 6.11153 12.9325 6.53622 13.4133 7.08619C13.8941 7.63617 14.2339 8.29491 14.4032 9.00554C14.5725 9.71616 14.5663 10.4573 14.3852 11.165C14.2041 11.8727 13.8534 12.5257 13.3635 13.0676ZM18.4142 10.8064C18.2587 10.8106 18.1055 10.7683 17.9742 10.685C17.8429 10.6017 17.7394 10.4811 17.6769 10.3387C17.6145 10.1962 17.596 10.0384 17.6237 9.88532C17.6514 9.73228 17.7242 9.59098 17.8327 9.47951C17.9411 9.36803 18.0804 9.29143 18.2326 9.25951C18.3848 9.22759 18.5431 9.24179 18.6872 9.3003C18.8313 9.35881 18.9547 9.45897 19.0416 9.58797C19.1285 9.71697 19.1749 9.86896 19.175 10.0245C19.1751 10.2283 19.0956 10.424 18.9535 10.57C18.8114 10.7161 18.6179 10.8009 18.4142 10.8064Z" fill="#9E9E9E"/>
</svg>
