<svg width="16" height="18" viewBox="0 0 16 18" fill="none" xmlns="http://www.w3.org/2000/svg">
<path d="M13.768 15.5143L14.2577 5.71429H14.2857C14.7404 5.71429 15.1764 5.53368 15.4979 5.21218C15.8194 4.89069 16 4.45466 16 4C16 3.54534 15.8194 3.10931 15.4979 2.78782C15.1764 2.46633 14.7404 2.28571 14.2857 2.28571H11.3029L11.0566 1.29829C10.9638 0.927377 10.7497 0.598129 10.4483 0.362888C10.1469 0.127647 9.77548 -8.48272e-05 9.39314 6.62255e-07H6.63314C6.25567 -0.00033102 5.88864 0.123935 5.58901 0.353516C5.28937 0.583096 5.07389 0.905154 4.976 1.26971L4.70457 2.28571H1.71429C1.25963 2.28571 0.823594 2.46633 0.502103 2.78782C0.180612 3.10931 0 3.54534 0 4C0 4.45466 0.180612 4.89069 0.502103 5.21218C0.823594 5.53368 1.25963 5.71429 1.71429 5.71429H1.74229L2.232 15.5137C2.25384 15.9529 2.44358 16.3668 2.762 16.67C3.08042 16.9733 3.50317 17.1425 3.94286 17.1429H12.0571C12.4967 17.1425 12.9194 16.9733 13.2378 16.6702C13.5562 16.3672 13.746 15.9533 13.768 15.5143ZM6.08171 1.56572C6.11437 1.44442 6.18609 1.33727 6.28577 1.26083C6.38544 1.1844 6.50753 1.14293 6.63314 1.14286H9.39314C9.52071 1.14277 9.64463 1.18536 9.74518 1.26385C9.84573 1.34235 9.91713 1.45223 9.948 1.576L10.1257 2.28571H5.88571L6.08171 1.56572ZM1.14286 4C1.14286 3.84845 1.20306 3.7031 1.31022 3.59594C1.41739 3.48878 1.56273 3.42857 1.71429 3.42857H14.2857C14.4373 3.42857 14.5826 3.48878 14.6898 3.59594C14.7969 3.7031 14.8571 3.84845 14.8571 4C14.8571 4.15155 14.7969 4.2969 14.6898 4.40406C14.5826 4.51123 14.4373 4.57143 14.2857 4.57143H1.71429C1.56273 4.57143 1.41739 4.51123 1.31022 4.40406C1.20306 4.2969 1.14286 4.15155 1.14286 4ZM3.37143 15.4571L2.88629 5.71429H13.1149L12.6286 15.4577C12.6211 15.6042 12.5576 15.7421 12.4512 15.8431C12.3449 15.944 12.2038 16.0002 12.0571 16H3.94286C3.79613 16.0002 3.65495 15.9439 3.54857 15.8429C3.44219 15.7418 3.37877 15.6037 3.37143 15.4571Z" fill="#C00B26"/>
<path d="M10.8854 8.00002C10.8104 7.99617 10.7353 8.00717 10.6645 8.03238C10.5937 8.0576 10.5285 8.09653 10.4728 8.14696C10.4171 8.19739 10.3718 8.25831 10.3397 8.32625C10.3075 8.39419 10.2891 8.4678 10.2854 8.54287L10.0569 13.1143C10.0493 13.2659 10.1022 13.4142 10.204 13.5267C10.3058 13.6393 10.4482 13.7067 10.5997 13.7143C10.7513 13.7219 10.8996 13.6689 11.0122 13.5671C11.1247 13.4653 11.1921 13.323 11.1997 13.1714L11.4283 8.60002C11.4321 8.52495 11.4211 8.44987 11.3959 8.37906C11.3707 8.30826 11.3318 8.24312 11.2814 8.18739C11.2309 8.13165 11.17 8.08641 11.1021 8.05426C11.0341 8.02211 10.9605 8.00368 10.8854 8.00002Z" fill="#C00B26"/>
<path d="M5.11441 7.99998C5.03933 8.00364 4.96572 8.02207 4.89778 8.05422C4.82985 8.08638 4.76892 8.13162 4.71849 8.18735C4.66807 8.24309 4.62913 8.30822 4.60392 8.37903C4.5787 8.44983 4.5677 8.52492 4.57155 8.59998L4.80012 13.1714C4.80984 13.3222 4.87795 13.4632 4.98998 13.5646C5.10201 13.6659 5.24914 13.7196 5.40012 13.7143C5.47519 13.7106 5.54881 13.6922 5.61674 13.66C5.68468 13.6279 5.74561 13.5826 5.79603 13.5269C5.84646 13.4712 5.8854 13.406 5.91061 13.3352C5.93583 13.2644 5.94683 13.1893 5.94298 13.1143L5.71441 8.54284C5.70613 8.39154 5.63845 8.24963 5.52609 8.14797C5.41373 8.04631 5.26578 7.99312 5.11441 7.99998Z" fill="#C00B26"/>
<path d="M8.00014 8C7.84859 8 7.70324 8.0602 7.59608 8.16737C7.48891 8.27453 7.42871 8.41988 7.42871 8.57143V13.1429C7.42871 13.2944 7.48891 13.4398 7.59608 13.5469C7.70324 13.6541 7.84859 13.7143 8.00014 13.7143C8.15169 13.7143 8.29704 13.6541 8.4042 13.5469C8.51136 13.4398 8.57157 13.2944 8.57157 13.1429V8.57143C8.57157 8.41988 8.51136 8.27453 8.4042 8.16737C8.29704 8.0602 8.15169 8 8.00014 8Z" fill="#C00B26"/>
</svg>
