<svg width="43" height="32" viewBox="0 0 43 32" fill="none" xmlns="http://www.w3.org/2000/svg">
<g filter="url(#filter0_d)">
<path d="M22 22H10C8.89543 22 8 21.1046 8 20V4C8 2.89543 8.89543 2 10 2H17C17.0109 2.00047 17.0217 2.00249 17.032 2.006C17.0418 2.00902 17.0518 2.01103 17.062 2.012C17.1502 2.01765 17.2373 2.0348 17.321 2.063L17.349 2.072C17.3717 2.07968 17.3937 2.08904 17.415 2.1C17.5239 2.14842 17.6232 2.21618 17.708 2.3L23.708 8.3C23.7918 8.38479 23.8596 8.48406 23.908 8.593C23.918 8.615 23.925 8.638 23.933 8.661L23.942 8.687C23.9699 8.77039 23.9864 8.85718 23.991 8.945C23.9926 8.95418 23.9949 8.96322 23.998 8.972C23.9998 8.98122 24.0004 8.99062 24.0001 9V20C24.0001 21.1046 23.1046 22 22 22ZM10 4V20H22V10H17C16.4477 10 16 9.55228 16 9V4H10ZM18 5.414V8H20.586L18 5.414Z" fill="#4B7DDE"/>
<rect x="25" y="10" width="14" height="10" rx="5" fill="#4B7DDE"/>
<path d="M29.493 18C29.433 18 29.382 17.979 29.34 17.937C29.298 17.895 29.277 17.844 29.277 17.784V13.122L27.909 14.175C27.873 14.205 27.831 14.22 27.783 14.22C27.711 14.22 27.651 14.187 27.603 14.121L27.225 13.635C27.195 13.587 27.18 13.542 27.18 13.5C27.18 13.428 27.213 13.368 27.279 13.32L29.295 11.763C29.349 11.721 29.424 11.7 29.52 11.7H30.312C30.378 11.7 30.429 11.721 30.465 11.763C30.507 11.799 30.528 11.85 30.528 11.916V17.784C30.528 17.844 30.507 17.895 30.465 17.937C30.429 17.979 30.378 18 30.312 18H29.493ZM31.787 18C31.727 18 31.676 17.979 31.634 17.937C31.592 17.895 31.571 17.844 31.571 17.784V17.325C31.571 17.163 31.646 17.022 31.796 16.902L33.218 15.489C33.836 15.003 34.265 14.625 34.505 14.355C34.751 14.079 34.874 13.809 34.874 13.545C34.874 13.263 34.796 13.041 34.64 12.879C34.49 12.717 34.262 12.636 33.956 12.636C33.656 12.636 33.419 12.726 33.245 12.906C33.071 13.08 32.963 13.308 32.921 13.59C32.903 13.662 32.87 13.716 32.822 13.752C32.774 13.782 32.72 13.797 32.66 13.797H31.859C31.805 13.797 31.76 13.779 31.724 13.743C31.688 13.707 31.67 13.665 31.67 13.617C31.682 13.263 31.778 12.933 31.958 12.627C32.138 12.315 32.399 12.066 32.741 11.88C33.083 11.688 33.485 11.592 33.947 11.592C34.427 11.592 34.832 11.676 35.162 11.844C35.498 12.006 35.75 12.231 35.918 12.519C36.086 12.807 36.17 13.134 36.17 13.5C36.17 13.902 36.056 14.265 35.828 14.589C35.606 14.913 35.264 15.261 34.802 15.633L33.524 16.929H36.089C36.155 16.929 36.206 16.95 36.242 16.992C36.284 17.028 36.305 17.079 36.305 17.145V17.784C36.305 17.844 36.284 17.895 36.242 17.937C36.206 17.979 36.155 18 36.089 18H31.787Z" fill="white"/>
</g>
<defs>
<filter id="filter0_d" x="0" y="0" width="43" height="32" filterUnits="userSpaceOnUse" color-interpolation-filters="sRGB">
<feFlood flood-opacity="0" result="BackgroundImageFix"/>
<feColorMatrix in="SourceAlpha" type="matrix" values="0 0 0 0 0 0 0 0 0 0 0 0 0 0 0 0 0 0 127 0" result="hardAlpha"/>
<feOffset dy="4"/>
<feGaussianBlur stdDeviation="2"/>
<feColorMatrix type="matrix" values="0 0 0 0 0 0 0 0 0 0 0 0 0 0 0 0 0 0 0.25 0"/>
<feBlend mode="normal" in2="BackgroundImageFix" result="effect1_dropShadow"/>
<feBlend mode="normal" in="SourceGraphic" in2="effect1_dropShadow" result="shape"/>
</filter>
</defs>
</svg>
