<svg width="26" height="26" viewBox="0 0 26 26" fill="none" xmlns="http://www.w3.org/2000/svg">
<rect width="26" height="26" rx="13" fill="#32C5FF" fill-opacity="0.1"/>
<path d="M17.085 12.9613C16.9303 12.9613 16.7819 13.0227 16.6725 13.1322C16.5631 13.2416 16.5016 13.39 16.5016 13.5448V18.3705C16.5016 18.4943 16.4524 18.613 16.3649 18.7006C16.2774 18.7881 16.1586 18.8373 16.0349 18.8373H7.63358C7.5098 18.8373 7.39108 18.7881 7.30355 18.7006C7.21602 18.613 7.16684 18.4943 7.16684 18.3705V9.96783C7.16684 9.84402 7.21602 9.72529 7.30355 9.63774C7.39108 9.5502 7.5098 9.50102 7.63358 9.50102H12.581C12.7357 9.50102 12.8841 9.43954 12.9935 9.33011C13.103 9.22068 13.1644 9.07226 13.1644 8.9175C13.1644 8.76274 13.103 8.61432 12.9935 8.50489C12.8841 8.39546 12.7357 8.33398 12.581 8.33398H7.63358C7.2008 8.33552 6.78619 8.50815 6.48016 8.81423C6.17414 9.1203 6.00154 9.53498 6 9.96783V18.3705C6.00154 18.8033 6.17414 19.218 6.48016 19.5241C6.78619 19.8302 7.2008 20.0028 7.63358 20.0043H16.0349C16.4676 20.0028 16.8823 19.8302 17.1883 19.5241C17.4943 19.218 17.6669 18.8033 17.6684 18.3705V13.5448C17.6684 13.39 17.607 13.2416 17.4976 13.1322C17.3881 13.0227 17.2398 12.9613 17.085 12.9613Z" fill="#4B7DDE"/>
<path d="M17.8657 6.28009C17.6798 6.09961 17.4306 5.99908 17.1715 6.00001C16.9202 6.00389 16.68 6.10416 16.5005 6.28009L14.4644 8.33407L10.573 12.2845C10.4056 12.4537 10.3042 12.6772 10.2871 12.9147L10.1704 14.922C10.16 15.0625 10.1801 15.2036 10.2295 15.3356C10.2788 15.4675 10.3562 15.5872 10.4563 15.6864C10.64 15.8717 10.8896 15.9766 11.1506 15.9781L13.1867 15.8614C13.4269 15.8507 13.6532 15.7459 13.8168 15.5697L19.7269 9.57113C19.9083 9.38205 20.0097 9.1301 20.0097 8.86799C20.0097 8.60589 19.9083 8.35393 19.7269 8.16485L17.8657 6.28009ZM13.0467 14.6827L11.3372 14.7936L11.4189 13.0781L15.7304 8.70169L17.3407 10.3355L13.0467 14.6827ZM18.1516 9.50111L16.553 7.87893L17.1773 7.24873L18.7817 8.88258L18.1516 9.50111Z" fill="#4B7DDE"/>
</svg>
