<svg width="16" height="11" viewBox="0 0 16 11" fill="none" xmlns="http://www.w3.org/2000/svg">
<path d="M1.27334 0H14.727C15.4281 0 16 0.572246 16 1.27334V9.66874C16 10.3695 15.4281 10.9417 14.727 10.9417H1.27334C0.572246 10.9417 0 10.3695 0 9.66874V1.27334C0 0.572246 0.572246 0 1.27334 0V0ZM1.27297 0.75758L7.4643 7.1324C7.77996 7.45729 8.22078 7.45729 8.53607 7.1324L14.7274 0.75758H14.727H1.27334H1.27297ZM15.2428 1.31063L11.3888 5.27943L15.2428 9.49485V1.31063ZM10.8627 5.82103L9.0773 7.65924C8.46334 8.29129 7.53667 8.29129 6.92307 7.65924L5.13766 5.82103L1.16 10.1716C1.19655 10.1801 1.23457 10.1845 1.27334 10.1845H14.727C14.7658 10.1845 14.8038 10.1801 14.84 10.1716L10.8627 5.82103ZM4.61157 5.27943L0.75758 1.31063V9.49485L4.61157 5.27943Z" fill="#0091FF"/>
</svg>
