<svg width="20" height="16" viewBox="0 0 20 16" fill="none" xmlns="http://www.w3.org/2000/svg">
<path d="M9.99998 0C8.87569 0 7.95453 0.921163 7.95453 2.04545C7.95453 2.48925 8.13166 2.87463 8.37356 3.21022C7.17559 3.89086 6.36362 5.23868 6.36362 6.81817C6.36363 6.93872 6.41153 7.05432 6.49677 7.13956C6.58201 7.22481 6.69762 7.2727 6.81817 7.27271H13.1818C13.3023 7.2727 13.4179 7.22481 13.5032 7.13956C13.5884 7.05432 13.6363 6.93872 13.6363 6.81817C13.6363 5.23868 12.8244 3.89086 11.6264 3.21022C11.8683 2.87463 12.0454 2.48925 12.0454 2.04545C12.0454 0.921163 11.1243 0 9.99998 0ZM9.99998 0.909089C10.633 0.909089 11.1363 1.41247 11.1363 2.04545C11.1363 2.42708 10.9492 2.76134 10.6605 2.96874C10.5917 3.01687 10.5376 3.0831 10.5042 3.16008C10.4708 3.23706 10.4593 3.32179 10.4711 3.40488C10.4828 3.48798 10.5174 3.5662 10.5709 3.63087C10.6244 3.69554 10.6947 3.74415 10.7741 3.7713C11.758 4.1084 12.5052 5.10921 12.6633 6.36362H7.33663C7.49473 5.10921 8.24196 4.1084 9.22583 3.7713C9.30524 3.74415 9.37559 3.69554 9.42908 3.63087C9.48256 3.5662 9.51711 3.48798 9.52887 3.40488C9.54064 3.32179 9.52917 3.23706 9.49574 3.16008C9.46231 3.0831 9.40822 3.01687 9.33947 2.96874C9.05071 2.76134 8.86362 2.42708 8.86362 2.04545C8.86362 1.41247 9.367 0.909089 9.99998 0.909089ZM9.95026 7.94743C9.83729 7.95984 9.73306 8.01412 9.65813 8.09957C9.5832 8.18502 9.54299 8.29545 9.54543 8.40907V10.6392L7.73436 11.6477C7.62887 11.7061 7.55091 11.804 7.51761 11.9199C7.48431 12.0358 7.49841 12.1601 7.5568 12.2656C7.61519 12.3711 7.7131 12.449 7.82898 12.4823C7.94485 12.5156 8.06921 12.5015 8.1747 12.4432L9.99998 11.4275L11.8253 12.4432C11.9307 12.5015 12.0551 12.5156 12.171 12.4823C12.2869 12.449 12.3848 12.3711 12.4432 12.2656C12.5015 12.1601 12.5156 12.0358 12.4823 11.9199C12.449 11.804 12.3711 11.7061 12.2656 11.6477L10.4545 10.6392V8.40907C10.4555 8.34818 10.4442 8.28773 10.4213 8.23129C10.3985 8.17485 10.3645 8.12358 10.3214 8.08052C10.2784 8.03746 10.2271 8.00349 10.1707 7.98063C10.1142 7.95776 10.0538 7.94647 9.99288 7.94743C9.97868 7.94676 9.96446 7.94676 9.95026 7.94743ZM3.63636 8.1818C2.51207 8.1818 1.59091 9.10296 1.59091 10.2272C1.59091 10.671 1.76804 11.0564 2.00994 11.392C0.81197 12.0727 0 13.4205 0 15C1.20531e-05 15.1205 0.0479053 15.2361 0.133146 15.3214C0.218387 15.4066 0.333995 15.4545 0.454544 15.4545H6.81817C6.93872 15.4545 7.05432 15.4066 7.13956 15.3214C7.22481 15.2361 7.2727 15.1205 7.27271 15C7.27271 13.4205 6.46074 12.0727 5.26277 11.392C5.50467 11.0564 5.68181 10.671 5.68181 10.2272C5.68181 9.10296 4.76064 8.1818 3.63636 8.1818ZM16.3636 8.1818C15.2393 8.1818 14.3181 9.10296 14.3181 10.2272C14.3181 10.671 14.4953 11.0564 14.7372 11.392C13.5392 12.0727 12.7272 13.4205 12.7272 15C12.7273 15.1205 12.7751 15.2361 12.8604 15.3214C12.9456 15.4066 13.0612 15.4545 13.1818 15.4545H17.7272C17.7875 15.4554 17.8473 15.4442 17.9032 15.4218C17.9591 15.3993 18.0099 15.366 18.0528 15.3237C18.0957 15.2814 18.1298 15.231 18.153 15.1754C18.1763 15.1198 18.1883 15.0602 18.1883 15C18.1883 14.9397 18.1763 14.8801 18.153 14.8245C18.1298 14.7689 18.0957 14.7186 18.0528 14.6763C18.0099 14.634 17.9591 14.6006 17.9032 14.5782C17.8473 14.5557 17.7875 14.5446 17.7272 14.5454H13.7003C13.8583 13.291 14.6056 12.2902 15.5895 11.9531C15.6689 11.9259 15.7392 11.8773 15.7927 11.8127C15.8462 11.748 15.8807 11.6698 15.8925 11.5867C15.9043 11.5036 15.8928 11.4189 15.8594 11.3419C15.8259 11.2649 15.7718 11.1987 15.7031 11.1505C15.4143 10.9431 15.2272 10.6089 15.2272 10.2272C15.2272 9.59427 15.7306 9.09089 16.3636 9.09089C16.9966 9.09089 17.5 9.59427 17.5 10.2272C17.5 10.6089 17.3129 10.9431 17.0241 11.1505C16.9554 11.1987 16.9013 11.2649 16.8678 11.3419C16.8344 11.4189 16.8229 11.5036 16.8347 11.5867C16.8465 11.6698 16.881 11.748 16.9345 11.8127C16.988 11.8773 17.0583 11.9259 17.1377 11.9531C18.2417 12.3314 19.0909 13.5258 19.0909 15C19.09 15.0602 19.1011 15.12 19.1236 15.1759C19.1461 15.2318 19.1794 15.2827 19.2217 15.3256C19.264 15.3685 19.3144 15.4025 19.37 15.4258C19.4255 15.449 19.4852 15.461 19.5454 15.461C19.6056 15.461 19.6653 15.449 19.7209 15.4258C19.7764 15.4025 19.8268 15.3685 19.8691 15.3256C19.9114 15.2827 19.9448 15.2318 19.9672 15.1759C19.9897 15.12 20.0008 15.0602 20 15C20 13.4205 19.188 12.0727 17.99 11.392C18.2319 11.0564 18.409 10.671 18.409 10.2272C18.409 9.10296 17.4879 8.1818 16.3636 8.1818ZM3.63636 9.09089C4.26933 9.09089 4.77272 9.59427 4.77272 10.2272C4.77272 10.6089 4.58562 10.9431 4.29687 11.1505C4.22811 11.1987 4.17402 11.2649 4.14059 11.3419C4.10716 11.4189 4.0957 11.5036 4.10746 11.5867C4.11923 11.6698 4.15377 11.748 4.20726 11.8127C4.26074 11.8773 4.33109 11.9259 4.4105 11.9531C5.39438 12.2902 6.14161 13.291 6.2997 14.5454H0.973009C1.1311 13.291 1.87833 12.2902 2.86221 11.9531C2.94162 11.9259 3.01197 11.8773 3.06546 11.8127C3.11894 11.748 3.15348 11.6698 3.16525 11.5867C3.17701 11.5036 3.16555 11.4189 3.13212 11.3419C3.09869 11.2649 3.0446 11.1987 2.97585 11.1505C2.68709 10.9431 2.49999 10.6089 2.49999 10.2272C2.49999 9.59427 3.00338 9.09089 3.63636 9.09089Z" fill="#9E9E9E"/>
</svg>
