<svg width="26" height="26" viewBox="0 0 26 26" fill="none" xmlns="http://www.w3.org/2000/svg">
<rect width="26" height="26" rx="13" fill="#C00B26" fill-opacity="0.1"/>
<path d="M18.9427 12.9197C18.7042 12.6813 18.4645 12.4415 18.2248 12.2031C17.8441 11.8224 17.4634 11.4417 17.0827 11.061C16.9958 10.9741 16.9088 10.8871 16.8219 10.8002C16.7007 10.679 16.4847 10.7686 16.4847 10.9398V12.5337H11.1313C10.8257 12.5337 10.5201 12.5298 10.2158 12.5337H10.2027C9.92736 12.5337 9.66259 12.7761 9.67576 13.0606C9.68894 13.3465 9.9076 13.5875 10.2027 13.5875H16.486V15.1814C16.486 15.2012 16.4886 15.2196 16.4952 15.238C16.4952 15.2394 16.4952 15.2407 16.4965 15.242C16.511 15.2842 16.5387 15.321 16.5742 15.3461C16.5742 15.3461 16.5742 15.3461 16.5756 15.3461C16.6151 15.3711 16.6638 15.3816 16.7099 15.3764C16.7521 15.3711 16.7929 15.3526 16.8245 15.321C17.0629 15.0813 17.3027 14.8429 17.5411 14.6044C17.9218 14.2238 18.3025 13.8431 18.6832 13.4624C18.7701 13.3754 18.857 13.2885 18.944 13.2016C19.0191 13.1239 19.0191 12.9948 18.9427 12.9197Z" fill="#C00B26"/>
<path d="M15.5358 16.6133V16.0825C15.5358 15.8072 15.2934 15.5424 15.0089 15.5556C14.7231 15.5688 14.482 15.7874 14.482 16.0825V17.9609C14.482 17.9951 14.4833 18.0294 14.4833 18.065C14.4728 18.065 14.4636 18.065 14.453 18.065H8.72692C8.50167 18.065 8.27642 18.0663 8.05117 18.0663C8.05249 18.0241 8.05381 17.982 8.05381 17.9411V8.31989C8.05381 8.23163 8.05381 8.14206 8.05381 8.05381C8.06303 8.05381 8.07225 8.05381 8.08279 8.05381H13.8102C14.0342 8.05381 14.2594 8.05249 14.4833 8.05249C14.4833 8.07093 14.4833 8.08937 14.4833 8.1065V10.035C14.4833 10.3103 14.7257 10.575 15.0102 10.5619C15.2961 10.5487 15.5371 10.33 15.5371 10.035V8.43318C15.5371 8.21978 15.5529 8.00111 15.524 7.79035C15.4634 7.33722 15.0761 7.00922 14.623 7C14.6019 7 14.5808 7 14.5597 7H8.05644C7.83382 7 7.61252 7.01317 7.4202 7.14622C7.15939 7.328 7.00527 7.59803 7 7.91945C7 7.94052 7 7.9616 7 7.98267V18.1427C7 18.1624 7 18.1809 7 18.2006C7.00527 18.5299 7.17783 18.8435 7.47026 19.0028C7.66258 19.1082 7.86017 19.1188 8.0683 19.1188H14.565C14.5834 19.1188 14.6019 19.1188 14.6203 19.1188C15.1248 19.1082 15.524 18.7078 15.5345 18.2046C15.5464 17.6737 15.5358 17.1429 15.5358 16.6133Z" fill="#C00B26"/>
</svg>
