<svg width="17" height="17" viewBox="0 0 17 17" fill="none" xmlns="http://www.w3.org/2000/svg">
<path fill-rule="evenodd" clip-rule="evenodd" d="M14.809 7.32889C14.809 8.99111 14.2423 10.5211 13.3168 11.7489L16.509 14.9411C16.9812 15.4133 16.9812 16.1689 16.509 16.6411C16.2823 16.8867 15.9612 17 15.659 17C15.3568 17 15.0357 16.8678 14.809 16.6411L11.5979 13.43L11.5601 13.3922C10.389 14.1856 8.97232 14.6578 7.46121 14.6578C3.41899 14.6578 0.132324 11.3711 0.132324 7.32889C0.132324 3.28667 3.41899 0 7.46121 0C11.5034 0 14.809 3.28667 14.809 7.32889ZM2.53121 7.32889C2.53121 10.0489 4.74121 12.2589 7.46121 12.2589C10.1812 12.2589 12.3912 10.0489 12.3912 7.32889C12.3912 4.60889 10.1812 2.39889 7.46121 2.39889C4.74121 2.39889 2.53121 4.60889 2.53121 7.32889Z" fill="#858585" fill-opacity="0.2"/>
</svg>
