<svg width="20" height="24" viewBox="0 0 20 24" fill="none" xmlns="http://www.w3.org/2000/svg">
<path d="M18.0953 0H9.65166V7.45385C9.65166 7.59546 9.53686 7.71026 9.39525 7.71026H1.94141V12.3077H18.0953V0Z" fill="#32C5FF"/>
<rect x="1.94141" y="21.1897" width="16.1538" height="1.91538" fill="#32C5FF"/>
<path d="M9.13863 0.361572L5.72068 3.77952L2.30273 7.19747H9.13863V0.361572Z" fill="#32C5FF"/>
<path fill-rule="evenodd" clip-rule="evenodd" d="M0.879487 12.8206H19.1205C19.6057 12.822 19.9986 13.2149 20 13.7V19.7975C19.9986 20.2826 19.6057 20.6756 19.1205 20.677H0.879487C0.394344 20.6756 0.00140826 20.2826 0 19.7975V13.7C0.00140826 13.2149 0.394344 12.822 0.879487 12.8206ZM5.54103 17.4359H6.2718C7.37692 17.4359 7.98718 16.8693 7.98718 15.8462C7.98718 14.8231 7.37692 14.2616 6.2718 14.2616H4.71282C4.57121 14.2616 4.45641 14.3764 4.45641 14.518V18.9744C4.45641 19.116 4.57121 19.2308 4.71282 19.2308H5.28462C5.42623 19.2308 5.54103 19.116 5.54103 18.9744V17.4359ZM10.0769 19.2308H8.59487C8.45326 19.2308 8.33846 19.116 8.33846 18.9744V14.518C8.33846 14.3764 8.45326 14.2616 8.59487 14.2616H10.0769C11.6769 14.2616 12.5564 15.1462 12.5564 16.7513C12.5564 18.3565 11.7 19.2308 10.0769 19.2308ZM15.9744 15.2847C16.116 15.2847 16.2308 15.1699 16.2308 15.0282L16.2333 14.518C16.2333 14.3764 16.1185 14.2616 15.9769 14.2616H13.2769C13.1353 14.2616 13.0205 14.3764 13.0205 14.518V18.9744C13.0205 19.116 13.1353 19.2308 13.2769 19.2308H13.8462C13.9878 19.2308 14.1026 19.116 14.1026 18.9744V17.3359H15.6795C15.8211 17.3359 15.9359 17.2211 15.9359 17.0795V16.5667C15.9359 16.4251 15.8211 16.3103 15.6795 16.3103H14.1026V15.2847H15.9744Z" fill="#32C5FF"/>
<path d="M11.4562 16.7513C11.4562 16.2231 11.3408 15.8385 11.1075 15.6052C10.8241 15.3612 10.4543 15.2419 10.0818 15.2744H9.42285V18.218H10.0767C11.0382 18.218 11.4511 17.7795 11.4562 16.7513Z" fill="#32C5FF"/>
<path d="M6.8923 15.8436C6.8923 15.4231 6.7282 15.2744 6.27178 15.2744H5.54102V16.4103H6.27178C6.78204 16.4103 6.88717 16.1821 6.8923 15.8436Z" fill="#32C5FF"/>
</svg>
