<svg width="25" height="24" viewBox="0 0 25 24" fill="none" xmlns="http://www.w3.org/2000/svg">
<path d="M19 11.93C18.7348 11.93 18.4804 12.0354 18.2929 12.2229C18.1054 12.4104 18 12.6648 18 12.93V21.2C18 21.4122 17.9157 21.6157 17.7657 21.7657C17.6157 21.9157 17.4122 22 17.2 22H2.8C2.58783 22 2.38434 21.9157 2.23431 21.7657C2.08429 21.6157 2 21.4122 2 21.2V6.8C2 6.58783 2.08429 6.38434 2.23431 6.23431C2.38434 6.08429 2.58783 6 2.8 6H11.28C11.5452 6 11.7996 5.89464 11.9871 5.70711C12.1746 5.51957 12.28 5.26522 12.28 5C12.28 4.73478 12.1746 4.48043 11.9871 4.29289C11.7996 4.10536 11.5452 4 11.28 4H2.8C2.0582 4.00264 1.34754 4.29848 0.823012 4.82301C0.298481 5.34754 0.00263518 6.05821 0 6.8L0 21.2C0.00263518 21.9418 0.298481 22.6525 0.823012 23.177C1.34754 23.7015 2.0582 23.9974 2.8 24H17.2C17.9418 23.9974 18.6525 23.7015 19.177 23.177C19.7015 22.6525 19.9974 21.9418 20 21.2V12.93C20 12.6648 19.8946 12.4104 19.7071 12.2229C19.5196 12.0354 19.2652 11.93 19 11.93Z" fill="#4B7DDE"/>
<path d="M20.3391 0.480011C20.0204 0.170704 19.5933 -0.00158192 19.1491 1.09474e-05C18.7184 0.00666692 18.3067 0.1785 17.9991 0.480011L14.5091 4.00001L7.83912 10.77C7.55218 11.06 7.37839 11.4431 7.34912 11.85L7.14912 15.29C7.13123 15.5308 7.16578 15.7726 7.25037 15.9988C7.33497 16.2249 7.46759 16.4301 7.63912 16.6C7.95401 16.9176 8.38192 17.0974 8.82912 17.1L12.3191 16.9C12.7308 16.8815 13.1187 16.702 13.3991 16.4L23.5291 6.12001C23.8402 5.79597 24.0139 5.36419 24.0139 4.91501C24.0139 4.46583 23.8402 4.03405 23.5291 3.71001L20.3391 0.480011ZM12.0791 14.88L9.14912 15.07L9.28912 12.13L16.6791 4.63001L19.4391 7.43001L12.0791 14.88ZM20.8291 6.00001L18.0891 3.22001L19.1591 2.14001L21.9091 4.94001L20.8291 6.00001Z" fill="#4B7DDE"/>
</svg>
