<svg width="16" height="17" viewBox="0 0 16 17" fill="none" xmlns="http://www.w3.org/2000/svg">
<path fill-rule="evenodd" clip-rule="evenodd" d="M3.35975 0C3.31561 0.00440745 3.27211 0.0137538 3.23006 0.0278637C1.90971 0.433369 0.974618 1.1505 0.46963 2.08429C-0.0353574 3.01808 -0.0991652 4.11259 0.117629 5.2245C0.551211 7.44832 2.08983 9.83852 4.03596 11.8291C5.98208 13.8198 8.32874 15.4131 10.5665 15.8772C11.6854 16.1092 12.7995 16.0478 13.7623 15.5437C14.7251 15.0395 15.4911 14.0994 15.9669 12.7555C16.0573 12.4961 15.9576 12.2085 15.7261 12.0607L11.5021 9.41147L11.4928 9.40228C11.472 9.38857 11.4504 9.3762 11.428 9.36522C11.3659 9.32496 11.2967 9.29669 11.2242 9.28187C11.218 9.28177 11.2118 9.28177 11.2057 9.28187C11.1904 9.27819 11.1749 9.27513 11.1594 9.27268C11.1563 9.27266 11.1532 9.27266 11.1501 9.27268C11.0512 9.26693 10.9525 9.28604 10.8629 9.32826C10.8304 9.34393 10.7994 9.36253 10.7703 9.38384C10.7511 9.39513 10.7325 9.40751 10.7147 9.42089C10.7083 9.43 10.7021 9.43929 10.6962 9.44876C10.6729 9.46866 10.6513 9.49033 10.6313 9.51358L9.70503 10.4492C8.02554 9.60378 6.73411 8.18644 5.57365 6.27149L6.42586 5.42853C6.44214 5.41396 6.4576 5.3985 6.47218 5.38222C6.48507 5.37043 6.49743 5.35806 6.50923 5.34517C6.50925 5.34211 6.50925 5.33905 6.50923 5.33598C6.52212 5.32418 6.53448 5.31182 6.54628 5.29893C6.54631 5.29587 6.54631 5.2928 6.54628 5.28974C6.55272 5.28063 6.5589 5.27134 6.56481 5.26188C6.57112 5.25589 6.5773 5.24976 6.58334 5.2435C6.59016 5.22832 6.59634 5.21286 6.60186 5.19717C6.60189 5.19411 6.60189 5.19104 6.60186 5.18798C6.60506 5.18191 6.60814 5.17578 6.61113 5.1696C6.61773 5.15747 6.62391 5.14511 6.62965 5.13255C6.63335 5.11724 6.63644 5.1018 6.63892 5.08625C6.63894 5.08318 6.63894 5.08012 6.63892 5.07706C6.64288 5.05869 6.64597 5.04014 6.64818 5.02148C6.6482 5.01842 6.6482 5.01535 6.64818 5.01229C6.64878 4.99685 6.64878 4.9814 6.64818 4.96596C6.6482 4.9629 6.6482 4.95983 6.64818 4.95677C6.64878 4.94134 6.64878 4.9259 6.64818 4.91047C6.64827 4.90434 6.64827 4.89822 6.64818 4.89209C6.64571 4.87653 6.64262 4.86107 6.63892 4.84576C6.63894 4.8427 6.63894 4.83963 6.63892 4.83657C6.6297 4.80155 6.6173 4.76745 6.60186 4.73469C6.60189 4.73163 6.60189 4.72856 6.60186 4.7255C6.59125 4.69997 6.57887 4.6752 6.56481 4.6514L6.55555 4.63302C6.55249 4.62992 6.5494 4.62686 6.54628 4.62383L3.90627 0.288656C3.80222 0.115554 3.61721 0.00733067 3.41532 0.00148211C3.39681 0.000613211 3.37826 0.000613211 3.35975 0.00148211V0ZM3.14503 1.30515L5.30336 4.87149L4.40483 5.76076C4.21679 5.95049 4.17886 6.24254 4.3122 6.47401C5.68339 8.84853 7.30804 10.6958 9.58295 11.6985C9.80606 11.7976 10.0671 11.7498 10.2406 11.578L11.1947 10.6239L14.6777 12.8008C14.292 13.6687 13.7893 14.1855 13.2141 14.4867C12.5479 14.8355 11.7343 14.9016 10.8057 14.709C8.94858 14.3239 6.70532 12.8643 4.87725 10.9944C3.04918 9.12456 1.63451 6.85085 1.27387 5.00117C1.09355 4.07634 1.17321 3.27979 1.51471 2.64832C1.80876 2.1046 2.30823 1.6391 3.14503 1.30515Z" fill="#32C5FF"/>
</svg>
