<svg width="20" height="24" viewBox="0 0 20 24" fill="none" xmlns="http://www.w3.org/2000/svg">
<path fill-rule="evenodd" clip-rule="evenodd" d="M6.63133 6.68417C6.63133 2.98542 9.64316 0 13.3419 0C17.0407 0 20.0261 3.01184 19.9997 6.737C19.9997 10.4358 16.9878 13.4212 13.2891 13.4212C11.6246 13.4212 10.1187 12.8135 8.95625 11.8096L8.92983 11.836C8.92983 11.9945 8.85057 12.1794 8.71848 12.3115L4.72911 16.3273L7.89947 19.5241C8.19008 19.8147 8.19008 20.2903 7.89947 20.5809C7.60885 20.8715 7.1333 20.8715 6.84268 20.5809L3.67233 17.3841L1.77011 19.3127L4.91405 22.5095C5.20467 22.8001 5.20467 23.2757 4.91405 23.5663C4.62343 23.8569 4.14788 23.8569 3.85726 23.5663L0.264196 19.9204C0.264196 19.9204 0.132098 19.8147 0.105678 19.7619C0.105678 19.7555 0.0995784 19.7416 0.0903094 19.7203C0.0609987 19.6532 0 19.5135 0 19.3127V19.2071C0.0264196 19.0485 0.0792589 18.9429 0.184937 18.7844L7.68811 11.2548C7.79379 11.1227 7.92589 11.0698 8.0844 11.0434L8.16366 10.9641C7.21256 9.80168 6.63133 8.29576 6.63133 6.68417ZM8.13778 6.68329C8.13778 9.56303 10.4627 11.888 13.3425 11.888C16.1958 11.888 18.5207 9.56303 18.5471 6.68329C18.5471 3.80355 16.2222 1.47862 13.3425 1.47862C10.4627 1.47862 8.13778 3.80355 8.13778 6.68329Z" fill="#4A4A4A"/>
</svg>
