<svg width="17" height="17" viewBox="0 0 17 17" fill="none" xmlns="http://www.w3.org/2000/svg">
<path fill-rule="evenodd" clip-rule="evenodd" d="M14.8095 7.32889C14.8095 8.99111 14.2428 10.5211 13.3173 11.7489L16.5095 14.9411C16.9817 15.4133 16.9817 16.1689 16.5095 16.6411C16.2828 16.8867 15.9617 17 15.6595 17C15.3573 17 15.0361 16.8678 14.8095 16.6411L11.5984 13.43L11.5606 13.3922C10.3895 14.1856 8.97281 14.6578 7.4617 14.6578C3.41948 14.6578 0.132812 11.3711 0.132812 7.32889C0.132812 3.28667 3.41948 0 7.4617 0C11.5039 0 14.8095 3.28667 14.8095 7.32889ZM2.5317 7.32889C2.5317 10.0489 4.7417 12.2589 7.4617 12.2589C10.1817 12.2589 12.3917 10.0489 12.3917 7.32889C12.3917 4.60889 10.1817 2.39889 7.4617 2.39889C4.7417 2.39889 2.5317 4.60889 2.5317 7.32889Z" fill="#858585" fill-opacity="0.2"/>
</svg>
