<svg width="20" height="14" viewBox="0 0 20 14" fill="none" xmlns="http://www.w3.org/2000/svg">
<path d="M11.4001 10.2293L12.0738 9.92149V11.3286L11.4001 11.6364V10.2293Z" stroke="#9E9E9E" stroke-width="2"/>
<path d="M10.0104 7.62358L10.1889 7.70542L10.0104 7.78727L9.83201 7.70542L10.0104 7.62358Z" stroke="#9E9E9E" stroke-width="2"/>
<path d="M8.60008 10.2293V11.6364L7.92639 11.3286V9.92149L8.60008 10.2293Z" stroke="#9E9E9E" stroke-width="2"/>
<path d="M10.0987 1.59507L9.99997 1.63372L9.90121 1.59507C9.76959 1.54357 9.6947 1.42997 9.6947 1.30526C9.6947 1.14176 9.83646 1 9.99997 1C10.1635 1 10.3052 1.14176 10.3052 1.30526C10.3052 1.42997 10.2303 1.54357 10.0987 1.59507Z" stroke="#9E9E9E" stroke-width="2"/>
<path d="M4.1355 3.98022L4.08842 4.08848L3.98015 4.13556C3.85423 4.19031 3.72889 4.16737 3.63336 4.07184C3.58052 4.019 3.5473 3.94211 3.5473 3.85263C3.5473 3.76315 3.58052 3.68625 3.63336 3.63342C3.68619 3.58058 3.76308 3.54736 3.85257 3.54736C3.94205 3.54736 4.01894 3.58058 4.07177 3.63342L4.08133 3.64297L4.09114 3.65226C4.1537 3.71153 4.19658 3.83972 4.1355 3.98022Z" stroke="#9E9E9E" stroke-width="2"/>
<path d="M1.59507 9.90133L1.63372 10.0001L1.59507 10.0988C1.54357 10.2305 1.42997 10.3054 1.30526 10.3054C1.14176 10.3054 1 10.1636 1 10.0001C1 9.83658 1.14176 9.69482 1.30526 9.69482C1.42997 9.69482 1.54357 9.76971 1.59507 9.90133Z" stroke="#9E9E9E" stroke-width="2"/>
<path d="M18.4049 10.0988L18.3663 10.0001L18.4049 9.90133C18.4564 9.76971 18.57 9.69482 18.6947 9.69482C18.8582 9.69482 19 9.83658 19 10.0001C19 10.1636 18.8582 10.3054 18.6947 10.3054C18.57 10.3054 18.4564 10.2305 18.4049 10.0988Z" stroke="#9E9E9E" stroke-width="2"/>
<path d="M15.8949 4.05052L15.8644 3.98022C15.8096 3.85429 15.8326 3.72895 15.9281 3.63342C15.9809 3.58058 16.0578 3.54736 16.1473 3.54736C16.2368 3.54736 16.3137 3.58058 16.3665 3.63342C16.4193 3.68625 16.4526 3.76315 16.4526 3.85263C16.4526 3.94211 16.4193 4.019 16.3665 4.07184C16.2678 4.1705 16.1425 4.17432 16.0682 4.13715L15.8949 4.05052Z" stroke="#9E9E9E" stroke-width="2"/>
</svg>
