<svg width="18" height="18" viewBox="0 0 18 18" fill="none" xmlns="http://www.w3.org/2000/svg">
<path fill-rule="evenodd" clip-rule="evenodd" d="M6.15358 4.09265C6.1265 4.09535 6.09982 4.10109 6.07403 4.10974C5.26415 4.35847 4.69058 4.79834 4.38084 5.37111C4.07109 5.94387 4.03195 6.61521 4.16492 7.29723C4.43088 8.66127 5.37464 10.1274 6.56835 11.3484C7.76206 12.5694 9.20146 13.5467 10.5741 13.8313C11.2604 13.9736 11.9437 13.936 12.5343 13.6268C13.1249 13.3175 13.5947 12.7409 13.8866 11.9165C13.942 11.7574 13.8809 11.5811 13.7389 11.4904L11.1479 9.86542L11.1422 9.85978C11.1295 9.85138 11.1162 9.84379 11.1025 9.83705C11.0644 9.81236 11.022 9.79501 10.9775 9.78593C10.9737 9.78587 10.9699 9.78587 10.9661 9.78593C10.9567 9.78367 10.9472 9.78179 10.9377 9.78029C10.9358 9.78028 10.9339 9.78028 10.932 9.78029C10.8714 9.77677 10.8108 9.78849 10.7559 9.81438C10.7359 9.82399 10.7169 9.8354 10.6991 9.84847C10.6873 9.8554 10.6759 9.86299 10.665 9.8712C10.661 9.87679 10.6572 9.88249 10.6536 9.88829C10.6393 9.9005 10.626 9.91379 10.6138 9.92805L10.0456 10.5019C9.01548 9.98338 8.22334 9.11402 7.51154 7.93943L8.03427 7.42238C8.04426 7.41344 8.05374 7.40396 8.06268 7.39398C8.07059 7.38674 8.07817 7.37916 8.08541 7.37125C8.08542 7.36937 8.08542 7.36749 8.08541 7.36561C8.09331 7.35838 8.1009 7.35079 8.10813 7.34289C8.10815 7.34101 8.10815 7.33913 8.10813 7.33725C8.11208 7.33166 8.11587 7.32596 8.1195 7.32016C8.12337 7.31649 8.12716 7.31273 8.13086 7.30889C8.13505 7.29958 8.13884 7.2901 8.14223 7.28047C8.14224 7.27859 8.14224 7.27671 8.14223 7.27483C8.14418 7.27111 8.14608 7.26735 8.14791 7.26356C8.15196 7.25612 8.15575 7.24854 8.15927 7.24083C8.16154 7.23145 8.16344 7.22197 8.16495 7.21243C8.16497 7.21055 8.16497 7.20868 8.16495 7.2068C8.16739 7.19553 8.16928 7.18415 8.17063 7.17271C8.17065 7.17083 8.17065 7.16895 8.17063 7.16707C8.17101 7.1576 8.17101 7.14812 8.17063 7.13865C8.17065 7.13677 8.17065 7.13489 8.17063 7.13301C8.171 7.12355 8.171 7.11408 8.17063 7.10461C8.17069 7.10086 8.17069 7.0971 8.17063 7.09334C8.16912 7.0838 8.16722 7.07432 8.16495 7.06492C8.16497 7.06305 8.16497 7.06117 8.16495 7.05929C8.1593 7.03781 8.15169 7.01689 8.14223 6.9968C8.14224 6.99492 8.14224 6.99304 8.14223 6.99116C8.13572 6.9755 8.12812 6.96031 8.1195 6.94571L8.11382 6.93443C8.11194 6.93253 8.11005 6.93065 8.10813 6.9288L6.4888 4.26971C6.42498 4.16353 6.3115 4.09715 6.18767 4.09356C6.17631 4.09303 6.16493 4.09303 6.15358 4.09356V4.09265ZM6.02189 4.89259L7.34576 7.0801L6.79462 7.62555C6.67928 7.74193 6.65602 7.92106 6.7378 8.06304C7.57887 9.51952 8.5754 10.6526 9.97078 11.2676C10.1076 11.3284 10.2678 11.2991 10.3742 11.1937L10.9594 10.6085L13.0958 11.9437C12.8592 12.4761 12.5508 12.7931 12.1981 12.9778C11.7894 13.1918 11.2903 13.2323 10.7208 13.1142C9.58167 12.878 8.2057 11.9827 7.0844 10.8358C5.9631 9.68883 5.09537 8.29419 4.87415 7.15964C4.76355 6.59237 4.81241 6.10379 5.02188 5.71646C5.20224 5.38295 5.50861 5.09742 6.02189 4.89259Z" fill="#6DD400"/>
<path fill-rule="evenodd" clip-rule="evenodd" d="M9 1C4.58709 1 1 4.58522 1 8.99995C1 10.6042 1.47539 12.1037 2.31359 13.39L1.41892 16.3756C1.3798 16.5062 1.41709 16.6478 1.5155 16.7423C1.61392 16.8367 1.75691 16.8681 1.88586 16.8236L4.80815 15.8151C6.02497 16.5661 7.4639 16.9999 9 16.9999C13.4146 16.9999 17 13.4145 17 8.99995C17 4.58533 13.4146 1 9 1ZM8.99784 1.725C13.0196 1.725 16.2707 4.97602 16.2707 8.99778C16.2707 13.0195 13.0196 16.2706 8.99784 16.2706C7.53993 16.2706 6.18399 15.8429 5.05025 15.1073C4.95632 15.0464 4.83956 15.0321 4.73371 15.0686L2.31699 15.9027L3.057 13.4331C3.08845 13.3281 3.07088 13.2145 3.00916 13.1239C2.18758 11.9185 1.725 10.5144 1.725 8.99778C1.725 4.97613 4.97796 1.725 8.99784 1.725Z" fill="#6DD400"/>
<path d="M2.31359 13.39L2.50517 13.4474L2.5318 13.3585L2.48115 13.2808L2.31359 13.39ZM1.41892 16.3756L1.22734 16.3182L1.22733 16.3182L1.41892 16.3756ZM1.88586 16.8236L1.95108 17.0127L1.95111 17.0127L1.88586 16.8236ZM4.80815 15.8151L4.9132 15.6449L4.83252 15.5951L4.74291 15.6261L4.80815 15.8151ZM5.05025 15.1073L5.15911 14.9396L5.15911 14.9395L5.05025 15.1073ZM4.73371 15.0686L4.66848 14.8796L4.66847 14.8796L4.73371 15.0686ZM2.31699 15.9027L2.12541 15.8453L2.01342 16.219L2.38224 16.0917L2.31699 15.9027ZM3.057 13.4331L3.24858 13.4905L3.24858 13.4905L3.057 13.4331ZM3.00916 13.1239L3.17443 13.0113L3.17442 13.0113L3.00916 13.1239ZM9 0.8C4.47667 0.8 0.8 4.47473 0.8 8.99995H1.2C1.2 4.69571 4.69752 1.2 9 1.2V0.8ZM0.8 8.99995C0.8 10.6447 1.2876 12.1818 2.14602 13.4992L2.48115 13.2808C1.66318 12.0255 1.2 10.5637 1.2 8.99995H0.8ZM2.12201 13.3326L1.22734 16.3182L1.61051 16.433L2.50517 13.4474L2.12201 13.3326ZM1.22733 16.3182C1.16668 16.5207 1.22448 16.7402 1.37703 16.8866L1.65398 16.5979C1.60969 16.5554 1.59291 16.4917 1.61052 16.4329L1.22733 16.3182ZM1.37703 16.8866C1.52957 17.0329 1.75121 17.0816 1.95108 17.0127L1.82064 16.6346C1.76262 16.6546 1.69827 16.6404 1.65398 16.5979L1.37703 16.8866ZM1.95111 17.0127L4.8734 16.0042L4.74291 15.6261L1.82061 16.6346L1.95111 17.0127ZM4.70311 15.9853C5.95069 16.7553 7.42586 17.1999 9 17.1999V16.7999C7.50195 16.7999 6.09926 16.377 4.9132 15.6449L4.70311 15.9853ZM9 17.1999C13.5251 17.1999 17.2 13.525 17.2 8.99995H16.8C16.8 13.3041 13.3042 16.7999 9 16.7999V17.1999ZM17.2 8.99995C17.2 4.47487 13.5251 0.8 9 0.8V1.2C13.3042 1.2 16.8 4.69579 16.8 8.99995H17.2ZM8.99784 1.925C12.9092 1.925 16.0707 5.08648 16.0707 8.99778H16.4707C16.4707 4.86556 13.1301 1.525 8.99784 1.525V1.925ZM16.0707 8.99778C16.0707 12.9091 12.9092 16.0706 8.99784 16.0706V16.4706C13.1301 16.4706 16.4707 13.13 16.4707 8.99778H16.0707ZM8.99784 16.0706C7.57957 16.0706 6.2613 15.6547 5.15911 14.9396L4.94139 15.2751C6.10669 16.0312 7.50028 16.4706 8.99784 16.4706V16.0706ZM5.15911 14.9395C5.01352 14.8451 4.83253 14.823 4.66848 14.8796L4.79895 15.2577C4.84658 15.2413 4.89913 15.2477 4.9414 15.2751L5.15911 14.9395ZM4.66847 14.8796L2.25175 15.7136L2.38224 16.0917L4.79896 15.2577L4.66847 14.8796ZM2.50858 15.9601L3.24858 13.4905L2.86541 13.3757L2.12541 15.8453L2.50858 15.9601ZM3.24858 13.4905C3.29734 13.3277 3.2701 13.1517 3.17443 13.0113L2.84388 13.2365C2.87166 13.2773 2.87957 13.3284 2.86541 13.3757L3.24858 13.4905ZM3.17442 13.0113C2.37439 11.8375 1.925 10.4724 1.925 8.99778H1.525C1.525 10.5565 2.00077 11.9995 2.84389 13.2366L3.17442 13.0113ZM1.925 8.99778C1.925 5.08662 5.08838 1.925 8.99784 1.925V1.525C4.86753 1.525 1.525 4.86564 1.525 8.99778H1.925Z" fill="#6DD400"/>
</svg>
